<?xml version="1.0" encoding="UTF-8" standalone="no"?>
<!DOCTYPE svg PUBLIC "-//W3C//DTD SVG 1.1//EN"
 "http://www.w3.org/Graphics/SVG/1.1/DTD/svg11.dtd">
<!-- Generated by graphviz version 2.38.0 (20140413.2041)
 -->
<!-- Title: G Pages: 1 -->
<svg width="260pt" height="250pt"
 viewBox="0.00 0.00 259.99 250.29" xmlns="http://www.w3.org/2000/svg" xmlns:xlink="http://www.w3.org/1999/xlink">
<g id="graph0" class="graph" transform="scale(1 1) rotate(0) translate(84.0525 149.96)">
<title>G</title>
<polygon fill="white" stroke="none" points="-84.0525,100.332 -84.0525,-149.96 175.94,-149.96 175.94,100.332 -84.0525,100.332"/>
<!-- 1 -->
<g id="node1" class="node"><title>1</title>
<ellipse fill="none" stroke="black" cx="81.7338" cy="-127.487" rx="18" ry="18"/>
<text text-anchor="middle" x="81.7338" y="-123.787" font-family="Times,serif" font-size="14.00">1</text>
</g>
<!-- 2 -->
<g id="node2" class="node"><title>2</title>
<ellipse fill="none" stroke="black" cx="153.94" cy="-127.96" rx="18" ry="18"/>
<text text-anchor="middle" x="153.94" y="-124.26" font-family="Times,serif" font-size="14.00">2</text>
</g>
<!-- 1&#45;&gt;2 -->
<g id="edge1" class="edge"><title>1&#45;&gt;2</title>
<path fill="none" stroke="black" d="M99.9546,-127.606C107.736,-127.657 117.001,-127.718 125.64,-127.775"/>
<polygon fill="black" stroke="black" points="125.703,-131.275 135.725,-127.841 125.749,-124.275 125.703,-131.275"/>
<text text-anchor="middle" x="107.297" y="-131.491" font-family="Times,serif" font-size="14.00"> 1</text>
</g>
<!-- 3 -->
<g id="node3" class="node"><title>3</title>
<ellipse fill="none" stroke="black" cx="118.326" cy="-65.5528" rx="18" ry="18"/>
<text text-anchor="middle" x="118.326" y="-61.8528" font-family="Times,serif" font-size="14.00">3</text>
</g>
<!-- 2&#45;&gt;3 -->
<g id="edge2" class="edge"><title>2&#45;&gt;3</title>
<path fill="none" stroke="black" d="M144.953,-112.212C141.186,-105.611 136.714,-97.7755 132.522,-90.4283"/>
<polygon fill="black" stroke="black" points="135.43,-88.4635 127.434,-81.5129 129.351,-91.933 135.43,-88.4635"/>
<text text-anchor="middle" x="133.237" y="-90.1204" font-family="Times,serif" font-size="14.00"> 1</text>
</g>
<!-- 3&#45;&gt;1 -->
<g id="edge5" class="edge"><title>3&#45;&gt;1</title>
<path fill="none" stroke="black" d="M109.092,-81.1814C105.222,-87.7324 100.627,-95.5087 96.3193,-102.8"/>
<polygon fill="black" stroke="black" points="93.1653,-101.258 91.0919,-111.648 99.1921,-104.819 93.1653,-101.258"/>
<text text-anchor="middle" x="97.2058" y="-95.7907" font-family="Times,serif" font-size="14.00"> 1</text>
</g>
<!-- 4 -->
<g id="node4" class="node"><title>4</title>
<ellipse fill="none" stroke="red" cx="-62.0525" cy="26.5273" rx="18" ry="18"/>
<text text-anchor="middle" x="-62.0525" y="30.2273" font-family="Times,serif" font-size="14.00">4</text>
</g>
<!-- 5 -->
<g id="node5" class="node"><title>5</title>
<ellipse fill="none" stroke="red" cx="14.1368" cy="16.9912" rx="18" ry="18"/>
<text text-anchor="middle" x="14.1368" y="20.6912" font-family="Times,serif" font-size="14.00">5</text>
</g>
<!-- 4&#45;&gt;5 -->
<g id="edge3" class="edge"><title>4&#45;&gt;5</title>
<path fill="none" stroke="red" d="M-43.9967,24.2674C-34.9827,23.1392 -23.8761,21.749 -13.7942,20.4871"/>
<polygon fill="red" stroke="red" points="-14.1467,17.004 -3.78943,19.2349 -13.2773,23.9498 -14.1467,17.004"/>
<text text-anchor="middle" x="-34.3955" y="18.5773" font-family="Times,serif" font-size="14.00"> 2</text>
</g>
<!-- 7 -->
<g id="node6" class="node"><title>7</title>
<ellipse fill="none" stroke="black" cx="60.2538" cy="78.3315" rx="18" ry="18"/>
<text text-anchor="middle" x="60.2538" y="82.0315" font-family="Times,serif" font-size="14.00">7</text>
</g>
<!-- 5&#45;&gt;7 -->
<g id="edge4" class="edge"><title>5&#45;&gt;7</title>
<path fill="none" stroke="black" d="M25.0659,31.528C30.522,38.7852 37.2448,47.7272 43.3473,55.8441"/>
<polygon fill="black" stroke="black" points="46.1914,53.8028 49.4032,63.8991 40.5962,58.0093 46.1914,53.8028"/>
<text text-anchor="middle" x="28.7066" y="54.8861" font-family="Times,serif" font-size="14.00"> 1</text>
</g>
<!-- 6 -->
<g id="node7" class="node"><title>6</title>
<ellipse fill="none" stroke="red" cx="43.6619" cy="-53.85" rx="18" ry="18"/>
<text text-anchor="middle" x="43.6619" y="-50.15" font-family="Times,serif" font-size="14.00">6</text>
</g>
<!-- 5&#45;&gt;6 -->
<g id="edge6" class="edge"><title>5&#45;&gt;6</title>
<path fill="none" stroke="red" d="M21.1338,0.202809C24.627,-8.17847 28.931,-18.5054 32.838,-27.8796"/>
<polygon fill="red" stroke="red" points="29.6374,-29.2982 36.7151,-37.1822 36.0986,-26.6053 29.6374,-29.2982"/>
<text text-anchor="middle" x="21.4859" y="-17.6384" font-family="Times,serif" font-size="14.00"> 2</text>
</g>
</g>
</svg>
