<?xml version="1.0" encoding="UTF-8" standalone="no"?>
<!DOCTYPE svg PUBLIC "-//W3C//DTD SVG 1.1//EN"
 "http://www.w3.org/Graphics/SVG/1.1/DTD/svg11.dtd">
<!-- Generated by graphviz version 2.38.0 (20140413.2041)
 -->
<!-- Title: G Pages: 1 -->
<svg width="608pt" height="422pt"
 viewBox="0.00 0.00 608.41 422.10" xmlns="http://www.w3.org/2000/svg" xmlns:xlink="http://www.w3.org/1999/xlink">
<g id="graph0" class="graph" transform="scale(1 1) rotate(0) translate(217.75 173.726)">
<title>G</title>
<polygon fill="white" stroke="none" points="-217.75,248.379 -217.75,-173.726 390.662,-173.726 390.662,248.379 -217.75,248.379"/>
<!-- 2 -->
<g id="node1" class="node"><title>2</title>
<ellipse fill="none" stroke="red" stroke-width="2" cx="72.839" cy="-46.6784" rx="18" ry="18"/>
<text text-anchor="middle" x="72.839" y="-42.9784" font-family="Times,serif" font-size="14.00">2</text>
</g>
<!-- 5 -->
<g id="node2" class="node"><title>5</title>
<ellipse fill="none" stroke="red" stroke-width="2" cx="-34.0202" cy="93.7402" rx="18" ry="18"/>
<text text-anchor="middle" x="-34.0202" y="97.4402" font-family="Times,serif" font-size="14.00">5</text>
</g>
<!-- 2&#45;&gt;5 -->
<g id="edge1" class="edge"><title>2&#45;&gt;5</title>
<path fill="none" stroke="black" d="M65.5791,-30.1314C49.4425,-3.92659 11.2697,46.7039 -12.9622,74.4847"/>
<polygon fill="black" stroke="black" points="-10.4155,76.8872 -19.6961,81.9981 -15.6283,72.2153 -10.4155,76.8872"/>
<text text-anchor="middle" x="18.8084" y="18.3766" font-family="Times,serif" font-size="14.00"> 4 </text>
</g>
<!-- 9 -->
<g id="node4" class="node"><title>9</title>
<ellipse fill="none" stroke="red" stroke-width="2" cx="-54.4227" cy="-151.726" rx="18" ry="18"/>
<text text-anchor="middle" x="-54.4227" y="-148.026" font-family="Times,serif" font-size="14.00">9</text>
</g>
<!-- 2&#45;&gt;9 -->
<g id="edge20" class="edge"><title>2&#45;&gt;9</title>
<path fill="none" stroke="black" d="M56.4377,-54.5499C32.5104,-70.5831 -11.5155,-106.565 -36.34,-130.057"/>
<polygon fill="black" stroke="black" points="-38.9554,-127.719 -43.6754,-137.204 -34.0704,-132.732 -38.9554,-127.719"/>
<text text-anchor="middle" x="2.54883" y="-81.1034" font-family="Times,serif" font-size="14.00"> 7 </text>
</g>
<!-- 8 -->
<g id="node5" class="node"><title>8</title>
<ellipse fill="none" stroke="red" stroke-width="2" cx="-18.2671" cy="0.666995" rx="18" ry="18"/>
<text text-anchor="middle" x="-18.2671" y="4.36699" font-family="Times,serif" font-size="14.00">8</text>
</g>
<!-- 2&#45;&gt;8 -->
<g id="edge15" class="edge"><title>2&#45;&gt;8</title>
<path fill="none" stroke="black" d="M59.7898,-34.0177C46.5718,-25.226 25.8273,-14.1277 9.02456,-6.68278"/>
<polygon fill="black" stroke="black" points="10.2494,-3.40123 -0.326459,-2.76651 7.54523,-9.85785 10.2494,-3.40123"/>
<text text-anchor="middle" x="26.9072" y="-9.15025" font-family="Times,serif" font-size="14.00"> 9 </text>
</g>
<!-- 0 -->
<g id="node6" class="node"><title>0</title>
<ellipse fill="none" stroke="red" stroke-width="2" cx="-81.4067" cy="-38.5405" rx="18" ry="18"/>
<text text-anchor="middle" x="-81.4067" y="-34.8405" font-family="Times,serif" font-size="14.00">0</text>
</g>
<!-- 2&#45;&gt;0 -->
<g id="edge12" class="edge"><title>2&#45;&gt;0</title>
<path fill="none" stroke="black" d="M55.3818,-41.2572C28.9085,-37.1597 -21.6521,-34.2129 -53.3347,-34.6837"/>
<polygon fill="black" stroke="black" points="-53.7938,-31.1958 -63.6835,-34.9964 -53.5823,-38.1926 -53.7938,-31.1958"/>
<text text-anchor="middle" x="-6.47641" y="-26.7704" font-family="Times,serif" font-size="14.00"> 8 </text>
</g>
<!-- 6 -->
<g id="node9" class="node"><title>6</title>
<ellipse fill="none" stroke="red" stroke-width="2" cx="222.049" cy="-65.311" rx="18" ry="18"/>
<text text-anchor="middle" x="222.049" y="-61.611" font-family="Times,serif" font-size="14.00">6</text>
</g>
<!-- 2&#45;&gt;6 -->
<g id="edge25" class="edge"><title>2&#45;&gt;6</title>
<path fill="none" stroke="red" stroke-width="2" d="M89.6867,-53.3418C115.076,-59.1909 163.425,-65.5079 194.133,-67.2227"/>
<polygon fill="red" stroke="red" stroke-width="2" points="194.059,-70.7225 204.192,-67.6291 194.342,-63.7282 194.059,-70.7225"/>
<text text-anchor="middle" x="132.91" y="-64.0823" font-family="Times,serif" font-size="14.00"> 10</text>
</g>
<!-- 5&#45;&gt;2 -->
<g id="edge13" class="edge"><title>5&#45;&gt;2</title>
<path fill="none" stroke="black" d="M-26.7603,77.1931C-10.6237,50.9883 27.549,0.357785 51.781,-27.4229"/>
<polygon fill="black" stroke="black" points="49.2343,-29.8255 58.5149,-34.9364 54.4471,-25.1536 49.2343,-29.8255"/>
<text text-anchor="middle" x="5.01033" y="36.0851" font-family="Times,serif" font-size="14.00"> 4 </text>
</g>
<!-- 4 -->
<g id="node3" class="node"><title>4</title>
<ellipse fill="none" stroke="red" stroke-width="2" cx="-195.75" cy="-41.0708" rx="18" ry="18"/>
<text text-anchor="middle" x="-195.75" y="-37.3708" font-family="Times,serif" font-size="14.00">4</text>
</g>
<!-- 5&#45;&gt;4 -->
<g id="edge8" class="edge"><title>5&#45;&gt;4</title>
<path fill="none" stroke="red" stroke-width="2" d="M-50.0575,85.5091C-80.2519,64.8126 -144.983,11.2184 -177.071,-19.2748"/>
<polygon fill="red" stroke="red" stroke-width="2" points="-179.763,-17.011 -184.485,-26.4956 -174.879,-22.0256 -179.763,-17.011"/>
<text text-anchor="middle" x="-119.064" y="44.3171" font-family="Times,serif" font-size="14.00"> 5</text>
</g>
<!-- 5&#45;&gt;8 -->
<g id="edge21" class="edge"><title>5&#45;&gt;8</title>
<path fill="none" stroke="black" d="M-36.4197,75.7739C-35.5939,61.8782 -32.5883,42.4458 -28.9855,26.8262"/>
<polygon fill="black" stroke="black" points="-32.2756,25.5631 -26.4152,16.7367 -25.4922,27.2912 -32.2756,25.5631"/>
<text text-anchor="middle" x="-40.2026" y="47.5001" font-family="Times,serif" font-size="14.00"> 6 </text>
</g>
<!-- 5&#45;&gt;0 -->
<g id="edge18" class="edge"><title>5&#45;&gt;0</title>
<path fill="none" stroke="black" d="M-44.2977,78.8203C-54.6875,57.1808 -69.4686,16.7709 -77.2179,-10.5216"/>
<polygon fill="black" stroke="black" points="-80.6234,-9.70866 -79.8198,-20.273 -73.86,-11.5134 -80.6234,-9.70866"/>
<text text-anchor="middle" x="-68.2578" y="30.3493" font-family="Times,serif" font-size="14.00"> 8 </text>
</g>
<!-- 7 -->
<g id="node10" class="node"><title>7</title>
<ellipse fill="none" stroke="red" stroke-width="2" cx="-106.755" cy="226.379" rx="18" ry="18"/>
<text text-anchor="middle" x="-106.755" y="230.079" font-family="Times,serif" font-size="14.00">7</text>
</g>
<!-- 5&#45;&gt;7 -->
<g id="edge32" class="edge"><title>5&#45;&gt;7</title>
<path fill="none" stroke="black" d="M-38.5392,111.39C-48.7457,135.531 -72.0876,178.674 -88.774,204.728"/>
<polygon fill="black" stroke="black" points="-85.9264,206.768 -94.3662,213.172 -91.7626,202.902 -85.9264,206.768"/>
<text text-anchor="middle" x="-71.1566" y="154.259" font-family="Times,serif" font-size="14.00"> 6 </text>
</g>
<!-- 4&#45;&gt;5 -->
<g id="edge26" class="edge"><title>4&#45;&gt;5</title>
<path fill="none" stroke="black" d="M-179.712,-32.8397C-149.518,-12.1432 -84.7868,41.451 -52.6989,71.9442"/>
<polygon fill="black" stroke="black" points="-50.0069,69.6804 -45.2852,79.165 -54.8909,74.695 -50.0069,69.6804"/>
<text text-anchor="middle" x="-123.706" y="15.7523" font-family="Times,serif" font-size="14.00"> 5 </text>
</g>
<!-- 4&#45;&gt;9 -->
<g id="edge2" class="edge"><title>4&#45;&gt;9</title>
<path fill="none" stroke="black" d="M-184.298,-55.4265C-161.519,-77.1278 -110.502,-117.418 -79.5712,-138.459"/>
<polygon fill="black" stroke="black" points="-81.3182,-141.5 -71.0451,-144.091 -77.4599,-135.659 -81.3182,-141.5"/>
<text text-anchor="middle" x="-139.435" y="-100.743" font-family="Times,serif" font-size="14.00"> 4 </text>
</g>
<!-- 1 -->
<g id="node7" class="node"><title>1</title>
<ellipse fill="none" stroke="red" stroke-width="2" cx="-172.928" cy="87.9305" rx="18" ry="18"/>
<text text-anchor="middle" x="-172.928" y="91.6305" font-family="Times,serif" font-size="14.00">1</text>
</g>
<!-- 4&#45;&gt;1 -->
<g id="edge6" class="edge"><title>4&#45;&gt;1</title>
<path fill="none" stroke="red" stroke-width="2" d="M-188.032,-24.7696C-181.929,-3.58455 -175.03,33.7336 -172.218,59.5965"/>
<polygon fill="red" stroke="red" stroke-width="2" points="-168.701,59.6218 -171.276,69.8988 -175.672,60.2586 -168.701,59.6218"/>
<text text-anchor="middle" x="-185.625" y="13.6134" font-family="Times,serif" font-size="14.00"> 1</text>
</g>
<!-- 9&#45;&gt;2 -->
<g id="edge34" class="edge"><title>9&#45;&gt;2</title>
<path fill="none" stroke="black" d="M-38.0213,-143.854C-14.0941,-127.821 29.9319,-91.8386 54.7563,-68.3472"/>
<polygon fill="black" stroke="black" points="57.3718,-70.6855 62.0917,-61.2001 52.4868,-65.6718 57.3718,-70.6855"/>
<text text-anchor="middle" x="0.867493" y="-109.901" font-family="Times,serif" font-size="14.00"> 7 </text>
</g>
<!-- 9&#45;&gt;4 -->
<g id="edge31" class="edge"><title>9&#45;&gt;4</title>
<path fill="none" stroke="black" d="M-65.8743,-137.37C-88.6535,-115.669 -139.671,-75.3787 -170.601,-54.3372"/>
<polygon fill="black" stroke="black" points="-168.854,-51.2966 -179.127,-48.7051 -172.712,-57.1373 -168.854,-51.2966"/>
<text text-anchor="middle" x="-125.738" y="-84.6536" font-family="Times,serif" font-size="14.00"> 4 </text>
</g>
<!-- 9&#45;&gt;8 -->
<g id="edge27" class="edge"><title>9&#45;&gt;8</title>
<path fill="none" stroke="red" stroke-width="2" d="M-46.0026,-135.571C-37.1039,-109.906 -24.8584,-59.5161 -19.5459,-27.7281"/>
<polygon fill="red" stroke="red" stroke-width="2" points="-16.0678,-28.1361 -18.0249,-17.7236 -22.9882,-27.0839 -16.0678,-28.1361"/>
<text text-anchor="middle" x="-38.2743" y="-85.4495" font-family="Times,serif" font-size="14.00"> 7</text>
</g>
<!-- 9&#45;&gt;0 -->
<g id="edge29" class="edge"><title>9&#45;&gt;0</title>
<path fill="none" stroke="black" d="M-53.6158,-133.625C-56.021,-114.819 -62.7738,-85.2551 -69.3094,-64.0801"/>
<polygon fill="black" stroke="black" points="-66.0301,-62.848 -72.4803,-54.4429 -72.6794,-65.0358 -66.0301,-62.848"/>
<text text-anchor="middle" x="-68.9626" y="-102.653" font-family="Times,serif" font-size="14.00"> 9 </text>
</g>
<!-- 8&#45;&gt;2 -->
<g id="edge30" class="edge"><title>8&#45;&gt;2</title>
<path fill="none" stroke="red" stroke-width="2" d="M-5.21789,-11.9937C8.00009,-20.7855 28.7446,-31.8837 45.5473,-39.3287"/>
<polygon fill="red" stroke="red" stroke-width="2" points="44.3225,-42.6102 54.8983,-43.2449 47.0266,-36.1536 44.3225,-42.6102"/>
<text text-anchor="middle" x="14.6647" y="-29.4612" font-family="Times,serif" font-size="14.00"> 9</text>
</g>
<!-- 8&#45;&gt;5 -->
<g id="edge19" class="edge"><title>8&#45;&gt;5</title>
<path fill="none" stroke="black" d="M-15.8676,18.6332C-16.6935,32.5289 -19.6991,51.9613 -23.3019,67.581"/>
<polygon fill="black" stroke="black" points="-20.0118,68.844 -25.8721,77.6705 -26.7952,67.116 -20.0118,68.844"/>
<text text-anchor="middle" x="-12.0848" y="39.3071" font-family="Times,serif" font-size="14.00"> 6 </text>
</g>
<!-- 8&#45;&gt;9 -->
<g id="edge3" class="edge"><title>8&#45;&gt;9</title>
<path fill="none" stroke="black" d="M-26.6872,-15.4878C-35.5859,-41.1523 -47.8314,-91.5425 -53.1439,-123.33"/>
<polygon fill="black" stroke="black" points="-56.622,-122.923 -54.6649,-133.335 -49.7016,-123.975 -56.622,-122.923"/>
<text text-anchor="middle" x="-47.4155" y="-58.2091" font-family="Times,serif" font-size="14.00"> 7 </text>
</g>
<!-- 8&#45;&gt;1 -->
<g id="edge17" class="edge"><title>8&#45;&gt;1</title>
<path fill="none" stroke="black" d="M-31.5768,13.049C-57.0629,30.9239 -112.943,62.7647 -146.334,78.733"/>
<polygon fill="black" stroke="black" points="-144.967,81.957 -155.514,82.9691 -147.9,75.6011 -144.967,81.957"/>
<text text-anchor="middle" x="-96.4553" y="57.091" font-family="Times,serif" font-size="14.00"> 2 </text>
</g>
<!-- 0&#45;&gt;2 -->
<g id="edge4" class="edge"><title>0&#45;&gt;2</title>
<path fill="none" stroke="black" d="M-63.9495,-43.9618C-37.4762,-48.0593 13.0844,-51.0061 44.767,-50.5353"/>
<polygon fill="black" stroke="black" points="45.2261,-54.0231 55.1158,-50.2225 45.0146,-47.0263 45.2261,-54.0231"/>
<text text-anchor="middle" x="-17.0913" y="-51.0485" font-family="Times,serif" font-size="14.00"> 8 </text>
</g>
<!-- 0&#45;&gt;5 -->
<g id="edge22" class="edge"><title>0&#45;&gt;5</title>
<path fill="none" stroke="black" d="M-71.1292,-23.6206C-60.7395,-1.98114 -45.9584,38.4288 -38.209,65.7213"/>
<polygon fill="black" stroke="black" points="-34.8035,64.9083 -35.6071,75.4726 -41.5669,66.713 -34.8035,64.9083"/>
<text text-anchor="middle" x="-47.1691" y="17.2503" font-family="Times,serif" font-size="14.00"> 8 </text>
</g>
<!-- 0&#45;&gt;9 -->
<g id="edge33" class="edge"><title>0&#45;&gt;9</title>
<path fill="none" stroke="red" stroke-width="2" d="M-82.2136,-56.6409C-79.8084,-75.4468 -73.0556,-105.011 -66.52,-126.186"/>
<polygon fill="red" stroke="red" stroke-width="2" points="-69.7993,-127.418 -63.3491,-135.823 -63.15,-125.23 -69.7993,-127.418"/>
<text text-anchor="middle" x="-79.8668" y="-80.2135" font-family="Times,serif" font-size="14.00"> 9</text>
</g>
<!-- 0&#45;&gt;1 -->
<g id="edge14" class="edge"><title>0&#45;&gt;1</title>
<path fill="none" stroke="black" d="M-88.1116,-21.6619C-101.689,1.7637 -131.762,43.8023 -152.309,68.4961"/>
<polygon fill="black" stroke="black" points="-149.708,70.8401 -158.874,76.1536 -155.022,66.2838 -149.708,70.8401"/>
<text text-anchor="middle" x="-127.71" y="34.6171" font-family="Times,serif" font-size="14.00"> 7 </text>
</g>
<!-- 1&#45;&gt;4 -->
<g id="edge10" class="edge"><title>1&#45;&gt;4</title>
<path fill="none" stroke="black" d="M-180.646,71.6294C-186.749,50.4443 -193.648,13.1261 -196.46,-12.7367"/>
<polygon fill="black" stroke="black" points="-199.977,-12.762 -197.401,-23.039 -193.006,-13.3989 -199.977,-12.762"/>
<text text-anchor="middle" x="-196.053" y="40.6463" font-family="Times,serif" font-size="14.00"> 1 </text>
</g>
<!-- 1&#45;&gt;8 -->
<g id="edge23" class="edge"><title>1&#45;&gt;8</title>
<path fill="none" stroke="black" d="M-159.618,75.5486C-134.132,57.6736 -78.2519,25.8328 -44.8614,9.86451"/>
<polygon fill="black" stroke="black" points="-46.228,6.64047 -35.6816,5.62841 -43.2949,12.9964 -46.228,6.64047"/>
<text text-anchor="middle" x="-94.7399" y="38.9065" font-family="Times,serif" font-size="14.00"> 2 </text>
</g>
<!-- 1&#45;&gt;0 -->
<g id="edge5" class="edge"><title>1&#45;&gt;0</title>
<path fill="none" stroke="red" stroke-width="2" d="M-166.223,71.0519C-152.646,47.6263 -122.573,5.58771 -102.026,-19.1061"/>
<polygon fill="red" stroke="red" stroke-width="2" points="-104.626,-21.4501 -95.4604,-26.7636 -99.3123,-16.8938 -104.626,-21.4501"/>
<text text-anchor="middle" x="-139.625" y="22.1729" font-family="Times,serif" font-size="14.00"> 7</text>
</g>
<!-- 1&#45;&gt;7 -->
<g id="edge9" class="edge"><title>1&#45;&gt;7</title>
<path fill="none" stroke="black" d="M-161.283,101.874C-147.505,124.48 -125.715,169.395 -114.055,198.667"/>
<polygon fill="black" stroke="black" points="-110.672,197.715 -110.382,208.306 -117.213,200.208 -110.672,197.715"/>
<text text-anchor="middle" x="-145.169" y="146.471" font-family="Times,serif" font-size="14.00"> 0 </text>
</g>
<!-- 3 -->
<g id="node8" class="node"><title>3</title>
<ellipse fill="none" stroke="red" stroke-width="2" cx="368.662" cy="-65.3902" rx="18" ry="18"/>
<text text-anchor="middle" x="368.662" y="-61.6902" font-family="Times,serif" font-size="14.00">3</text>
</g>
<!-- 3&#45;&gt;6 -->
<g id="edge7" class="edge"><title>3&#45;&gt;6</title>
<path fill="none" stroke="black" d="M350.979,-60.7962C325.883,-58.213 279.685,-57.9053 249.943,-59.8933"/>
<polygon fill="black" stroke="black" points="249.478,-56.4197 239.799,-60.7297 250.053,-63.396 249.478,-56.4197"/>
<text text-anchor="middle" x="292.961" y="-49.1448" font-family="Times,serif" font-size="14.00"> 9 </text>
</g>
<!-- 6&#45;&gt;2 -->
<g id="edge28" class="edge"><title>6&#45;&gt;2</title>
<path fill="none" stroke="black" d="M205.201,-58.6477C179.812,-52.7985 131.463,-46.4816 100.755,-44.7667"/>
<polygon fill="black" stroke="black" points="100.829,-41.2669 90.6956,-44.3604 100.546,-48.2612 100.829,-41.2669"/>
<text text-anchor="middle" x="141.978" y="-40.5072" font-family="Times,serif" font-size="14.00"> 10 </text>
</g>
<!-- 6&#45;&gt;3 -->
<g id="edge16" class="edge"><title>6&#45;&gt;3</title>
<path fill="none" stroke="red" stroke-width="2" d="M239.731,-69.905C264.827,-72.4882 311.026,-72.796 340.768,-70.8079"/>
<polygon fill="red" stroke="red" stroke-width="2" points="341.233,-74.2815 350.912,-69.9715 340.658,-67.3052 341.233,-74.2815"/>
<text text-anchor="middle" x="284.75" y="-74.1565" font-family="Times,serif" font-size="14.00"> 9</text>
</g>
<!-- 7&#45;&gt;5 -->
<g id="edge11" class="edge"><title>7&#45;&gt;5</title>
<path fill="none" stroke="red" stroke-width="2" d="M-102.236,208.729C-92.0296,184.588 -68.6876,141.445 -52.0013,115.391"/>
<polygon fill="red" stroke="red" stroke-width="2" points="-54.8488,113.352 -46.4091,106.947 -49.0126,117.217 -54.8488,113.352"/>
<text text-anchor="middle" x="-82.6187" y="173.26" font-family="Times,serif" font-size="14.00"> 6</text>
</g>
<!-- 7&#45;&gt;1 -->
<g id="edge24" class="edge"><title>7&#45;&gt;1</title>
<path fill="none" stroke="black" d="M-118.401,212.435C-132.179,189.829 -153.968,144.914 -165.629,115.642"/>
<polygon fill="black" stroke="black" points="-169.011,116.594 -169.301,106.003 -162.47,114.102 -169.011,116.594"/>
<text text-anchor="middle" x="-149.515" y="175.239" font-family="Times,serif" font-size="14.00"> 0 </text>
</g>
</g>
</svg>
