<?xml version="1.0" encoding="UTF-8" standalone="no"?>
<!DOCTYPE svg PUBLIC "-//W3C//DTD SVG 1.1//EN"
 "http://www.w3.org/Graphics/SVG/1.1/DTD/svg11.dtd">
<!-- Generated by graphviz version 2.38.0 (20140413.2041)
 -->
<!-- Title: G Pages: 1 -->
<svg width="236pt" height="594pt"
 viewBox="0.00 0.00 236.06 594.11" xmlns="http://www.w3.org/2000/svg" xmlns:xlink="http://www.w3.org/1999/xlink">
<g id="graph0" class="graph" transform="scale(1 1) rotate(0) translate(121.644 297.69)">
<title>G</title>
<polygon fill="white" stroke="none" points="-121.644,296.418 -121.644,-297.69 114.417,-297.69 114.417,296.418 -121.644,296.418"/>
<!-- 7 -->
<g id="node1" class="node"><title>7</title>
<ellipse fill="none" stroke="red" stroke-width="2" cx="92.4166" cy="-259.216" rx="18" ry="18"/>
<text text-anchor="middle" x="92.4166" y="-255.516" font-family="Times,serif" font-size="14.00">7</text>
</g>
<!-- 6 -->
<g id="node2" class="node"><title>6</title>
<ellipse fill="none" stroke="red" stroke-width="2" cx="81.5071" cy="-182.194" rx="18" ry="18"/>
<text text-anchor="middle" x="81.5071" y="-178.494" font-family="Times,serif" font-size="14.00">6</text>
</g>
<!-- 7&#45;&gt;6 -->
<g id="edge1" class="edge"><title>7&#45;&gt;6</title>
<path fill="none" stroke="red" stroke-width="2" d="M95.659,-241.32C95.3206,-231.502 93.8251,-219.151 91.7405,-208.279"/>
<polygon fill="red" stroke="red" stroke-width="2" points="95.1432,-207.455 89.5799,-198.439 88.3061,-208.957 95.1432,-207.455"/>
<text text-anchor="middle" x="88.1997" y="-228.6" font-family="Times,serif" font-size="14.00"> 8</text>
</g>
<!-- 15 -->
<g id="node15" class="node"><title>15</title>
<ellipse fill="none" stroke="red" stroke-width="2" cx="12.3574" cy="-274.192" rx="19.4965" ry="19.4965"/>
<text text-anchor="middle" x="12.3574" y="-270.492" font-family="Times,serif" font-size="14.00">15</text>
</g>
<!-- 7&#45;&gt;15 -->
<g id="edge34" class="edge"><title>7&#45;&gt;15</title>
<path fill="none" stroke="black" d="M74.4019,-256.852C64.1491,-257.652 51.105,-259.801 39.6234,-262.486"/>
<polygon fill="black" stroke="black" points="38.4416,-259.177 29.6432,-265.079 40.202,-265.952 38.4416,-259.177"/>
<text text-anchor="middle" x="49.5126" y="-248.469" font-family="Times,serif" font-size="14.00"> 0 </text>
</g>
<!-- 6&#45;&gt;7 -->
<g id="edge4" class="edge"><title>6&#45;&gt;7</title>
<path fill="none" stroke="black" d="M78.2648,-200.09C78.6031,-209.909 80.0986,-222.26 82.1832,-233.132"/>
<polygon fill="black" stroke="black" points="78.7805,-233.955 84.3438,-242.972 85.6177,-232.454 78.7805,-233.955"/>
<text text-anchor="middle" x="72.724" y="-220.411" font-family="Times,serif" font-size="14.00"> 8 </text>
</g>
<!-- 5 -->
<g id="node5" class="node"><title>5</title>
<ellipse fill="none" stroke="red" stroke-width="2" cx="68.6173" cy="-105.188" rx="18" ry="18"/>
<text text-anchor="middle" x="68.6173" y="-101.488" font-family="Times,serif" font-size="14.00">5</text>
</g>
<!-- 6&#45;&gt;5 -->
<g id="edge41" class="edge"><title>6&#45;&gt;5</title>
<path fill="none" stroke="black" d="M84.288,-164.16C83.6969,-154.317 81.8838,-141.962 79.5198,-131.106"/>
<polygon fill="black" stroke="black" points="82.8922,-130.162 77.1064,-121.287 76.0945,-131.833 82.8922,-130.162"/>
<text text-anchor="middle" x="74.4039" y="-151.433" font-family="Times,serif" font-size="14.00"> 1 </text>
</g>
<!-- 14 -->
<g id="node16" class="node"><title>14</title>
<ellipse fill="none" stroke="red" stroke-width="2" cx="-3.07638" cy="-198.278" rx="19.4965" ry="19.4965"/>
<text text-anchor="middle" x="-3.07638" y="-194.578" font-family="Times,serif" font-size="14.00">14</text>
</g>
<!-- 6&#45;&gt;14 -->
<g id="edge20" class="edge"><title>6&#45;&gt;14</title>
<path fill="none" stroke="black" d="M63.3539,-179.998C51.9269,-180.926 36.9718,-183.475 24.1428,-186.571"/>
<polygon fill="black" stroke="black" points="23.1865,-183.203 14.418,-189.15 24.9811,-189.969 23.1865,-183.203"/>
<text text-anchor="middle" x="36.2483" y="-172.084" font-family="Times,serif" font-size="14.00"> 1 </text>
</g>
<!-- 1 -->
<g id="node3" class="node"><title>1</title>
<ellipse fill="none" stroke="red" stroke-width="2" cx="0.922995" cy="199.612" rx="18" ry="18"/>
<text text-anchor="middle" x="0.922995" y="203.312" font-family="Times,serif" font-size="14.00">1</text>
</g>
<!-- 0 -->
<g id="node4" class="node"><title>0</title>
<ellipse fill="none" stroke="red" stroke-width="2" cx="-20.3542" cy="274.418" rx="18" ry="18"/>
<text text-anchor="middle" x="-20.3542" y="278.118" font-family="Times,serif" font-size="14.00">0</text>
</g>
<!-- 1&#45;&gt;0 -->
<g id="edge2" class="edge"><title>1&#45;&gt;0</title>
<path fill="none" stroke="black" d="M1.7027,217.779C0.032906,227.458 -3.12749,239.488 -6.67049,249.974"/>
<polygon fill="black" stroke="black" points="-3.41056,251.25 -10.1484,259.426 -9.97998,248.833 -3.41056,251.25"/>
<text text-anchor="middle" x="-9.98389" y="230.076" font-family="Times,serif" font-size="14.00"> 5 </text>
</g>
<!-- 9 -->
<g id="node7" class="node"><title>9</title>
<ellipse fill="none" stroke="red" stroke-width="2" cx="-82.9545" cy="180.083" rx="18" ry="18"/>
<text text-anchor="middle" x="-82.9545" y="183.783" font-family="Times,serif" font-size="14.00">9</text>
</g>
<!-- 1&#45;&gt;9 -->
<g id="edge23" class="edge"><title>1&#45;&gt;9</title>
<path fill="none" stroke="red" stroke-width="2" d="M-17.3091,201.064C-29.0786,199.623 -44.5475,196.294 -57.5167,192.523"/>
<polygon fill="red" stroke="red" stroke-width="2" points="-58.7901,195.791 -67.2635,189.431 -56.6733,189.118 -58.7901,195.791"/>
<text text-anchor="middle" x="-42.9129" y="207.994" font-family="Times,serif" font-size="14.00"> 4</text>
</g>
<!-- 2 -->
<g id="node8" class="node"><title>2</title>
<ellipse fill="none" stroke="red" stroke-width="2" cx="20.3151" cy="123.991" rx="18" ry="18"/>
<text text-anchor="middle" x="20.3151" y="127.691" font-family="Times,serif" font-size="14.00">2</text>
</g>
<!-- 1&#45;&gt;2 -->
<g id="edge6" class="edge"><title>1&#45;&gt;2</title>
<path fill="none" stroke="black" d="M-0.314023,181.409C1.11194,171.653 3.96921,159.499 7.24793,148.884"/>
<polygon fill="black" stroke="black" points="3.96766,147.659 10.4876,139.308 10.5985,149.902 3.96766,147.659"/>
<text text-anchor="middle" x="-4.03305" y="161.347" font-family="Times,serif" font-size="14.00"> 3 </text>
</g>
<!-- 0&#45;&gt;1 -->
<g id="edge13" class="edge"><title>0&#45;&gt;1</title>
<path fill="none" stroke="red" stroke-width="2" d="M-21.1339,256.251C-19.4641,246.572 -16.3037,234.542 -12.7607,224.057"/>
<polygon fill="red" stroke="red" stroke-width="2" points="-16.0206,222.781 -9.28275,214.604 -9.45122,225.198 -16.0206,222.781"/>
<text text-anchor="middle" x="-22.4473" y="251.354" font-family="Times,serif" font-size="14.00"> 5</text>
</g>
<!-- 8 -->
<g id="node11" class="node"><title>8</title>
<ellipse fill="none" stroke="red" stroke-width="2" cx="-99.6441" cy="255.69" rx="18" ry="18"/>
<text text-anchor="middle" x="-99.6441" y="259.39" font-family="Times,serif" font-size="14.00">8</text>
</g>
<!-- 0&#45;&gt;8 -->
<g id="edge24" class="edge"><title>0&#45;&gt;8</title>
<path fill="none" stroke="black" d="M-38.4651,275.931C-49.1365,274.592 -62.7874,271.635 -74.4896,268.224"/>
<polygon fill="black" stroke="black" points="-75.6871,271.515 -84.1479,265.138 -73.5571,264.847 -75.6871,271.515"/>
<text text-anchor="middle" x="-63.9774" y="283.278" font-family="Times,serif" font-size="14.00"> 9 </text>
</g>
<!-- 5&#45;&gt;6 -->
<g id="edge39" class="edge"><title>5&#45;&gt;6</title>
<path fill="none" stroke="black" d="M65.8364,-123.222C66.4274,-133.065 68.2406,-145.42 70.6046,-156.276"/>
<polygon fill="black" stroke="black" points="67.2322,-157.22 73.018,-166.095 74.0299,-155.549 67.2322,-157.22"/>
<text text-anchor="middle" x="60.7205" y="-128.549" font-family="Times,serif" font-size="14.00"> 1 </text>
</g>
<!-- 13 -->
<g id="node6" class="node"><title>13</title>
<ellipse fill="none" stroke="red" stroke-width="2" cx="-17.3217" cy="-122.088" rx="19.4965" ry="19.4965"/>
<text text-anchor="middle" x="-17.3217" y="-118.388" font-family="Times,serif" font-size="14.00">13</text>
</g>
<!-- 5&#45;&gt;13 -->
<g id="edge3" class="edge"><title>5&#45;&gt;13</title>
<path fill="none" stroke="red" stroke-width="2" d="M50.5765,-103.126C38.8293,-104.143 23.2893,-106.893 10.0381,-110.182"/>
<polygon fill="red" stroke="red" stroke-width="2" points="8.74595,-106.907 0.0179169,-112.913 10.5863,-113.66 8.74595,-106.907"/>
<text text-anchor="middle" x="24.8073" y="-95.4543" font-family="Times,serif" font-size="14.00"> 6</text>
</g>
<!-- 4 -->
<g id="node13" class="node"><title>4</title>
<ellipse fill="none" stroke="red" stroke-width="2" cx="54.2242" cy="-28.4386" rx="18" ry="18"/>
<text text-anchor="middle" x="54.2242" y="-24.7386" font-family="Times,serif" font-size="14.00">4</text>
</g>
<!-- 5&#45;&gt;4 -->
<g id="edge31" class="edge"><title>5&#45;&gt;4</title>
<path fill="none" stroke="black" d="M71.045,-87.1003C70.2616,-77.2699 68.2073,-64.9516 65.6314,-54.1419"/>
<polygon fill="black" stroke="black" points="68.9844,-53.1317 63.0265,-44.3708 62.2207,-54.9349 68.9844,-53.1317"/>
<text text-anchor="middle" x="57.3382" y="-74.4211" font-family="Times,serif" font-size="14.00"> 10 </text>
</g>
<!-- 13&#45;&gt;5 -->
<g id="edge32" class="edge"><title>13&#45;&gt;5</title>
<path fill="none" stroke="black" d="M2.42146,-123.992C14.4898,-122.816 30.0463,-119.97 43.0487,-116.642"/>
<polygon fill="black" stroke="black" points="44.1366,-119.972 52.8134,-113.892 42.239,-113.234 44.1366,-119.972"/>
<text text-anchor="middle" x="15.2351" y="-124.117" font-family="Times,serif" font-size="14.00"> 6 </text>
</g>
<!-- 12 -->
<g id="node12" class="node"><title>12</title>
<ellipse fill="none" stroke="red" stroke-width="2" cx="-32.0515" cy="-46.2025" rx="19.4965" ry="19.4965"/>
<text text-anchor="middle" x="-32.0515" y="-42.5025" font-family="Times,serif" font-size="14.00">12</text>
</g>
<!-- 13&#45;&gt;12 -->
<g id="edge43" class="edge"><title>13&#45;&gt;12</title>
<path fill="none" stroke="black" d="M-15.1168,-102.598C-15.9693,-93.7382 -17.8007,-83.1079 -20.0737,-73.4748"/>
<polygon fill="black" stroke="black" points="-16.7574,-72.3236 -22.6881,-63.5442 -23.5268,-74.1058 -16.7574,-72.3236"/>
<text text-anchor="middle" x="-10.0953" y="-76.8363" font-family="Times,serif" font-size="14.00"> 3 </text>
</g>
<!-- 13&#45;&gt;14 -->
<g id="edge27" class="edge"><title>13&#45;&gt;14</title>
<path fill="none" stroke="red" stroke-width="2" d="M-19.6514,-141.612C-18.8556,-150.5 -17.0921,-161.172 -14.8805,-170.846"/>
<polygon fill="red" stroke="red" stroke-width="2" points="-18.198,-172.001 -12.3295,-180.822 -11.4162,-170.267 -18.198,-172.001"/>
<text text-anchor="middle" x="-22.766" y="-160.029" font-family="Times,serif" font-size="14.00"> 0</text>
</g>
<!-- 9&#45;&gt;1 -->
<g id="edge5" class="edge"><title>9&#45;&gt;1</title>
<path fill="none" stroke="black" d="M-64.7224,178.631C-52.9529,180.073 -37.484,183.401 -24.5148,187.173"/>
<polygon fill="black" stroke="black" points="-23.2414,183.905 -14.768,190.265 -25.3582,190.577 -23.2414,183.905"/>
<text text-anchor="middle" x="-52.1186" y="179.102" font-family="Times,serif" font-size="14.00"> 4 </text>
</g>
<!-- 10 -->
<g id="node9" class="node"><title>10</title>
<ellipse fill="none" stroke="red" stroke-width="2" cx="-65.1314" cy="104.69" rx="19.4965" ry="19.4965"/>
<text text-anchor="middle" x="-65.1314" y="108.39" font-family="Times,serif" font-size="14.00">10</text>
</g>
<!-- 9&#45;&gt;10 -->
<g id="edge7" class="edge"><title>9&#45;&gt;10</title>
<path fill="none" stroke="red" stroke-width="2" d="M-84.5656,162.035C-83.4045,152.827 -81.001,141.456 -78.1471,131.271"/>
<polygon fill="red" stroke="red" stroke-width="2" points="-81.4591,130.134 -75.1724,121.606 -74.7688,132.193 -81.4591,130.134"/>
<text text-anchor="middle" x="-86.8563" y="142.853" font-family="Times,serif" font-size="14.00"> 9</text>
</g>
<!-- 9&#45;&gt;8 -->
<g id="edge14" class="edge"><title>9&#45;&gt;8</title>
<path fill="none" stroke="black" d="M-81.0729,198.096C-82.1513,207.815 -84.5745,219.959 -87.4733,230.589"/>
<polygon fill="black" stroke="black" points="-84.1303,231.627 -90.3699,240.189 -90.8319,229.604 -84.1303,231.627"/>
<text text-anchor="middle" x="-91.7731" y="210.542" font-family="Times,serif" font-size="14.00"> 0 </text>
</g>
<!-- 2&#45;&gt;1 -->
<g id="edge38" class="edge"><title>2&#45;&gt;1</title>
<path fill="none" stroke="black" d="M21.5521,142.195C20.1261,151.95 17.2689,164.105 13.9902,174.719"/>
<polygon fill="black" stroke="black" points="17.2704,175.945 10.7505,184.296 10.6396,173.702 17.2704,175.945"/>
<text text-anchor="middle" x="25.2711" y="154.657" font-family="Times,serif" font-size="14.00"> 3 </text>
</g>
<!-- 2&#45;&gt;10 -->
<g id="edge21" class="edge"><title>2&#45;&gt;10</title>
<path fill="none" stroke="black" d="M2.22092,125.546C-9.49515,124.201 -24.9547,121.016 -38.1107,117.357"/>
<polygon fill="black" stroke="black" points="-39.4957,120.595 -48.0523,114.347 -37.4671,113.895 -39.4957,120.595"/>
<text text-anchor="middle" x="-25.4449" y="132.652" font-family="Times,serif" font-size="14.00"> 5 </text>
</g>
<!-- 3 -->
<g id="node14" class="node"><title>3</title>
<ellipse fill="none" stroke="red" stroke-width="2" cx="38.136" cy="47.9684" rx="18" ry="18"/>
<text text-anchor="middle" x="38.136" y="51.6684" font-family="Times,serif" font-size="14.00">3</text>
</g>
<!-- 2&#45;&gt;3 -->
<g id="edge17" class="edge"><title>2&#45;&gt;3</title>
<path fill="none" stroke="red" stroke-width="2" d="M18.7011,105.814C19.9246,96.029 22.5294,83.8157 25.5874,73.1329"/>
<polygon fill="red" stroke="red" stroke-width="2" points="22.283,71.9737 28.628,63.4889 28.9591,74.0786 22.283,71.9737"/>
<text text-anchor="middle" x="16.6442" y="85.6734" font-family="Times,serif" font-size="14.00"> 5</text>
</g>
<!-- 10&#45;&gt;9 -->
<g id="edge37" class="edge"><title>10&#45;&gt;9</title>
<path fill="none" stroke="black" d="M-63.7253,124.293C-64.9979,133.554 -67.4246,144.721 -70.2569,154.625"/>
<polygon fill="black" stroke="black" points="-66.9801,155.872 -73.3239,164.358 -73.6564,153.768 -66.9801,155.872"/>
<text text-anchor="middle" x="-74.4911" y="135.659" font-family="Times,serif" font-size="14.00"> 9 </text>
</g>
<!-- 10&#45;&gt;2 -->
<g id="edge35" class="edge"><title>10&#45;&gt;2</title>
<path fill="none" stroke="red" stroke-width="2" d="M-45.3396,103.339C-33.307,104.853 -17.8336,108.134 -4.92733,111.825"/>
<polygon fill="red" stroke="red" stroke-width="2" points="-3.74515,108.528 4.75817,114.848 -5.83047,115.21 -3.74515,108.528"/>
<text text-anchor="middle" x="-30.6335" y="103.782" font-family="Times,serif" font-size="14.00"> 5</text>
</g>
<!-- 11 -->
<g id="node10" class="node"><title>11</title>
<ellipse fill="none" stroke="red" stroke-width="2" cx="-47.963" cy="29.344" rx="19.4965" ry="19.4965"/>
<text text-anchor="middle" x="-47.963" y="33.044" font-family="Times,serif" font-size="14.00">11</text>
</g>
<!-- 10&#45;&gt;11 -->
<g id="edge11" class="edge"><title>10&#45;&gt;11</title>
<path fill="none" stroke="black" d="M-66.7067,85.1447C-65.5691,76.3199 -63.396,65.7576 -60.8136,56.206"/>
<polygon fill="black" stroke="black" points="-64.0919,54.9514 -57.8805,46.3683 -57.3837,56.9515 -64.0919,54.9514"/>
<text text-anchor="middle" x="-71.2602" y="66.8754" font-family="Times,serif" font-size="14.00"> 4 </text>
</g>
<!-- 11&#45;&gt;10 -->
<g id="edge8" class="edge"><title>11&#45;&gt;10</title>
<path fill="none" stroke="black" d="M-46.3877,48.889C-47.5253,57.7138 -49.6984,68.276 -52.2808,77.8276"/>
<polygon fill="black" stroke="black" points="-49.0025,79.0823 -55.2139,87.6654 -55.7107,77.0822 -49.0025,79.0823"/>
<text text-anchor="middle" x="-41.8342" y="59.5583" font-family="Times,serif" font-size="14.00"> 4 </text>
</g>
<!-- 11&#45;&gt;12 -->
<g id="edge36" class="edge"><title>11&#45;&gt;12</title>
<path fill="none" stroke="red" stroke-width="2" d="M-49.8633,9.84479C-48.8727,1.01072 -46.8758,-9.5759 -44.4528,-19.1595"/>
<polygon fill="red" stroke="red" stroke-width="2" points="-47.7538,-20.351 -41.6839,-29.0347 -41.0137,-18.4611 -47.7538,-20.351"/>
<text text-anchor="middle" x="-52.6581" y="-8.45737" font-family="Times,serif" font-size="14.00"> 3</text>
</g>
<!-- 11&#45;&gt;3 -->
<g id="edge28" class="edge"><title>11&#45;&gt;3</title>
<path fill="none" stroke="black" d="M-28.512,27.7852C-16.337,29.1784 -0.525394,32.3707 12.6449,36.0041"/>
<polygon fill="black" stroke="black" points="13.9598,32.745 22.5209,38.9866 11.9361,39.4461 13.9598,32.745"/>
<text text-anchor="middle" x="-15.4336" y="28.0946" font-family="Times,serif" font-size="14.00"> 4 </text>
</g>
<!-- 8&#45;&gt;0 -->
<g id="edge9" class="edge"><title>8&#45;&gt;0</title>
<path fill="none" stroke="red" stroke-width="2" d="M-81.5332,254.177C-70.8617,255.516 -57.2108,258.473 -45.5086,261.884"/>
<polygon fill="red" stroke="red" stroke-width="2" points="-44.3111,258.593 -35.8504,264.97 -46.4412,265.261 -44.3111,258.593"/>
<text text-anchor="middle" x="-69.0209" y="254.231" font-family="Times,serif" font-size="14.00"> 9</text>
</g>
<!-- 8&#45;&gt;9 -->
<g id="edge26" class="edge"><title>8&#45;&gt;9</title>
<path fill="none" stroke="black" d="M-101.526,237.677C-100.447,227.958 -98.0241,215.814 -95.1253,205.184"/>
<polygon fill="black" stroke="black" points="-98.4682,204.146 -92.2286,195.584 -91.7666,206.169 -98.4682,204.146"/>
<text text-anchor="middle" x="-105.825" y="232.631" font-family="Times,serif" font-size="14.00"> 0 </text>
</g>
<!-- 12&#45;&gt;13 -->
<g id="edge10" class="edge"><title>12&#45;&gt;13</title>
<path fill="none" stroke="black" d="M-34.2564,-65.6923C-33.4039,-74.5519 -31.5725,-85.1823 -29.2995,-94.8154"/>
<polygon fill="black" stroke="black" points="-32.6158,-95.9666 -26.6851,-104.746 -25.8464,-94.1844 -32.6158,-95.9666"/>
<text text-anchor="middle" x="-39.2779" y="-84.0538" font-family="Times,serif" font-size="14.00"> 3 </text>
</g>
<!-- 12&#45;&gt;11 -->
<g id="edge12" class="edge"><title>12&#45;&gt;11</title>
<path fill="none" stroke="black" d="M-30.1512,-26.7033C-31.1418,-17.8692 -33.1387,-7.28261 -35.5617,2.30102"/>
<polygon fill="black" stroke="black" points="-32.2607,3.4925 -38.3306,12.1762 -39.0008,1.60261 -32.2607,3.4925"/>
<text text-anchor="middle" x="-25.3565" y="-1.00114" font-family="Times,serif" font-size="14.00"> 3 </text>
</g>
<!-- 12&#45;&gt;4 -->
<g id="edge15" class="edge"><title>12&#45;&gt;4</title>
<path fill="none" stroke="red" stroke-width="2" d="M-12.6181,-47.9554C-0.430379,-46.6838 15.4114,-43.6495 28.6165,-40.1479"/>
<polygon fill="red" stroke="red" stroke-width="2" points="29.8983,-43.4201 38.5212,-37.2641 27.9415,-36.6991 29.8983,-43.4201"/>
<text text-anchor="middle" x="2.49921" y="-47.8516" font-family="Times,serif" font-size="14.00"> 9</text>
</g>
<!-- 4&#45;&gt;5 -->
<g id="edge30" class="edge"><title>4&#45;&gt;5</title>
<path fill="none" stroke="red" stroke-width="2" d="M51.7965,-46.5261C52.5798,-56.3565 54.6342,-68.6748 57.21,-79.4845"/>
<polygon fill="red" stroke="red" stroke-width="2" points="53.857,-80.4947 59.815,-89.2556 60.6208,-78.6915 53.857,-80.4947"/>
<text text-anchor="middle" x="45.5032" y="-51.8053" font-family="Times,serif" font-size="14.00"> 10</text>
</g>
<!-- 4&#45;&gt;12 -->
<g id="edge25" class="edge"><title>4&#45;&gt;12</title>
<path fill="none" stroke="black" d="M36.069,-26.5575C24.1488,-27.7028 8.35297,-30.6561 -5.02969,-34.1227"/>
<polygon fill="black" stroke="black" points="-6.01754,-30.7647 -14.6889,-36.8521 -4.11399,-37.5009 -6.01754,-30.7647"/>
<text text-anchor="middle" x="8.01965" y="-19.1401" font-family="Times,serif" font-size="14.00"> 9 </text>
</g>
<!-- 4&#45;&gt;3 -->
<g id="edge16" class="edge"><title>4&#45;&gt;3</title>
<path fill="none" stroke="black" d="M56.251,-10.3029C55.2503,-0.492793 52.9238,11.7763 50.1093,22.5256"/>
<polygon fill="black" stroke="black" points="53.4393,23.6093 47.2888,32.2361 46.7171,21.6567 53.4393,23.6093"/>
<text text-anchor="middle" x="45.6802" y="2.31138" font-family="Times,serif" font-size="14.00"> 1 </text>
</g>
<!-- 3&#45;&gt;2 -->
<g id="edge42" class="edge"><title>3&#45;&gt;2</title>
<path fill="none" stroke="black" d="M39.75,66.1458C38.5265,75.9308 35.9218,88.1441 32.8637,98.8268"/>
<polygon fill="black" stroke="black" points="36.1681,99.9861 29.8231,108.471 29.4921,97.8812 36.1681,99.9861"/>
<text text-anchor="middle" x="43.8069" y="78.6863" font-family="Times,serif" font-size="14.00"> 5 </text>
</g>
<!-- 3&#45;&gt;11 -->
<g id="edge29" class="edge"><title>3&#45;&gt;11</title>
<path fill="none" stroke="red" stroke-width="2" d="M19.962,49.6682C8.05314,48.4039 -7.71329,45.293 -21.0615,41.693"/>
<polygon fill="red" stroke="red" stroke-width="2" points="-22.0833,45.0409 -30.6936,38.8672 -20.1127,38.3239 -22.0833,45.0409"/>
<text text-anchor="middle" x="-6.04973" y="56.8806" font-family="Times,serif" font-size="14.00"> 4</text>
</g>
<!-- 3&#45;&gt;4 -->
<g id="edge22" class="edge"><title>3&#45;&gt;4</title>
<path fill="none" stroke="black" d="M36.1092,29.8327C37.11,20.0226 39.4365,7.75346 42.2509,-2.99585"/>
<polygon fill="black" stroke="black" points="38.9209,-4.07953 45.0714,-12.7063 45.6431,-2.12693 38.9209,-4.07953"/>
<text text-anchor="middle" x="31.6801" y="24.6184" font-family="Times,serif" font-size="14.00"> 1 </text>
</g>
<!-- 15&#45;&gt;7 -->
<g id="edge18" class="edge"><title>15&#45;&gt;7</title>
<path fill="none" stroke="red" stroke-width="2" d="M31.9924,-276.421C42.5055,-275.485 55.5749,-273.246 66.8692,-270.513"/>
<polygon fill="red" stroke="red" stroke-width="2" points="67.8718,-273.868 76.6181,-267.889 66.052,-267.109 67.8718,-273.868"/>
<text text-anchor="middle" x="43.9308" y="-277.267" font-family="Times,serif" font-size="14.00"> 0</text>
</g>
<!-- 15&#45;&gt;14 -->
<g id="edge33" class="edge"><title>15&#45;&gt;14</title>
<path fill="none" stroke="black" d="M14.3817,-254.644C13.4471,-245.774 11.5171,-235.137 9.15469,-225.504"/>
<polygon fill="black" stroke="black" points="12.455,-224.303 6.44816,-215.575 5.70148,-226.144 12.455,-224.303"/>
<text text-anchor="middle" x="22.7682" y="-228.874" font-family="Times,serif" font-size="14.00"> 10 </text>
</g>
<!-- 14&#45;&gt;6 -->
<g id="edge40" class="edge"><title>14&#45;&gt;6</title>
<path fill="none" stroke="black" d="M16.3377,-200.366C28.0171,-199.322 43.0208,-196.694 55.6899,-193.559"/>
<polygon fill="black" stroke="black" points="56.9377,-196.846 65.6586,-190.829 55.0893,-190.094 56.9377,-196.846"/>
<text text-anchor="middle" x="28.5138" y="-200.762" font-family="Times,serif" font-size="14.00"> 1 </text>
</g>
<!-- 14&#45;&gt;13 -->
<g id="edge19" class="edge"><title>14&#45;&gt;13</title>
<path fill="none" stroke="black" d="M-0.746665,-178.754C-1.54251,-169.865 -3.306,-159.194 -5.51755,-149.519"/>
<polygon fill="black" stroke="black" points="-2.20007,-148.364 -8.06858,-139.543 -8.98183,-150.099 -2.20007,-148.364"/>
<text text-anchor="middle" x="4.36789" y="-152.936" font-family="Times,serif" font-size="14.00"> 0 </text>
</g>
<!-- 14&#45;&gt;15 -->
<g id="edge44" class="edge"><title>14&#45;&gt;15</title>
<path fill="none" stroke="red" stroke-width="2" d="M-5.10069,-217.826C-4.16606,-226.696 -2.23608,-237.332 0.12632,-246.966"/>
<polygon fill="red" stroke="red" stroke-width="2" points="-3.17403,-248.167 2.83285,-256.894 3.57953,-246.326 -3.17403,-248.167"/>
<text text-anchor="middle" x="-11.4872" y="-236.196" font-family="Times,serif" font-size="14.00"> 10</text>
</g>
</g>
</svg>
