<?xml version="1.0" encoding="UTF-8" standalone="no"?>
<!DOCTYPE svg PUBLIC "-//W3C//DTD SVG 1.1//EN"
 "http://www.w3.org/Graphics/SVG/1.1/DTD/svg11.dtd">
<!-- Generated by graphviz version 2.38.0 (20140413.2041)
 -->
<!-- Title: G Pages: 1 -->
<svg width="412pt" height="414pt"
 viewBox="0.00 0.00 412.23 413.72" xmlns="http://www.w3.org/2000/svg" xmlns:xlink="http://www.w3.org/1999/xlink">
<g id="graph0" class="graph" transform="scale(1 1) rotate(0) translate(213.617 200.624)">
<title>G</title>
<polygon fill="white" stroke="none" points="-213.617,213.1 -213.617,-200.624 198.61,-200.624 198.61,213.1 -213.617,213.1"/>
<!-- 14 -->
<g id="node1" class="node"><title>14</title>
<ellipse fill="none" stroke="red" stroke-width="2" cx="73.0709" cy="113.799" rx="19.4965" ry="19.4965"/>
<text text-anchor="middle" x="73.0709" y="117.499" font-family="Times,serif" font-size="14.00">14</text>
</g>
<!-- 1 -->
<g id="node2" class="node"><title>1</title>
<ellipse fill="none" stroke="red" stroke-width="2" cx="158.565" cy="104.561" rx="18" ry="18"/>
<text text-anchor="middle" x="158.565" y="108.261" font-family="Times,serif" font-size="14.00">1</text>
</g>
<!-- 14&#45;&gt;1 -->
<g id="edge1" class="edge"><title>14&#45;&gt;1</title>
<path fill="none" stroke="red" stroke-width="2" d="M91.0117,106.149C102.475,103.748 117.574,101.894 130.591,101.205"/>
<polygon fill="red" stroke="red" stroke-width="2" points="130.815,97.6977 140.909,100.914 131.012,104.695 130.815,97.6977"/>
<text text-anchor="middle" x="105.301" y="99.8771" font-family="Times,serif" font-size="14.00"> 7</text>
</g>
<!-- 0 -->
<g id="node6" class="node"><title>0</title>
<ellipse fill="none" stroke="red" stroke-width="2" cx="-3.02927" cy="0.245445" rx="18" ry="18"/>
<text text-anchor="middle" x="-3.02927" y="3.94545" font-family="Times,serif" font-size="14.00">0</text>
</g>
<!-- 14&#45;&gt;0 -->
<g id="edge53" class="edge"><title>14&#45;&gt;0</title>
<path fill="none" stroke="black" d="M58.4647,100.707C43.5812,82.5845 21.2387,49.6727 7.82837,26.4297"/>
<polygon fill="black" stroke="black" points="4.62996,27.8793 2.83698,17.4372 10.7504,24.482 4.62996,27.8793"/>
<text text-anchor="middle" x="25.6466" y="59.7684" font-family="Times,serif" font-size="14.00"> 3 </text>
</g>
<!-- 13 -->
<g id="node10" class="node"><title>13</title>
<ellipse fill="none" stroke="red" stroke-width="2" cx="35.019" cy="189.602" rx="19.4965" ry="19.4965"/>
<text text-anchor="middle" x="35.019" y="193.302" font-family="Times,serif" font-size="14.00">13</text>
</g>
<!-- 14&#45;&gt;13 -->
<g id="edge43" class="edge"><title>14&#45;&gt;13</title>
<path fill="none" stroke="black" d="M69.738,133.188C65.8113,143.381 59.7884,155.914 53.7759,166.591"/>
<polygon fill="black" stroke="black" points="56.6649,168.58 48.5478,175.39 50.647,165.005 56.6649,168.58"/>
<text text-anchor="middle" x="54.257" y="146.089" font-family="Times,serif" font-size="14.00"> 6 </text>
</g>
<!-- 1&#45;&gt;14 -->
<g id="edge34" class="edge"><title>1&#45;&gt;14</title>
<path fill="none" stroke="black" d="M141.86,111.947C130.672,114.386 115.642,116.301 102.484,117.074"/>
<polygon fill="black" stroke="black" points="102.562,120.574 92.4417,117.438 102.308,113.578 102.562,120.574"/>
<text text-anchor="middle" x="114.672" y="125.711" font-family="Times,serif" font-size="14.00"> 7 </text>
</g>
<!-- 1&#45;&gt;0 -->
<g id="edge20" class="edge"><title>1&#45;&gt;0</title>
<path fill="none" stroke="black" d="M141.421,98.3902C111.539,82.9263 50.2627,43.6975 17.9228,19.6492"/>
<polygon fill="black" stroke="black" points="15.4378,22.1551 9.61878,13.3013 19.689,16.5939 15.4378,22.1551"/>
<text text-anchor="middle" x="72.1719" y="70.2197" font-family="Times,serif" font-size="14.00"> 8 </text>
</g>
<!-- 2 -->
<g id="node8" class="node"><title>2</title>
<ellipse fill="none" stroke="red" stroke-width="2" cx="175.363" cy="12.9996" rx="18" ry="18"/>
<text text-anchor="middle" x="175.363" y="16.6996" font-family="Times,serif" font-size="14.00">2</text>
</g>
<!-- 1&#45;&gt;2 -->
<g id="edge49" class="edge"><title>1&#45;&gt;2</title>
<path fill="none" stroke="red" stroke-width="2" d="M156.402,86.3627C157.413,72.8001 160.57,54.0964 164.272,38.9662"/>
<polygon fill="red" stroke="red" stroke-width="2" points="160.929,37.9195 166.903,29.1694 167.69,39.735 160.929,37.9195"/>
<text text-anchor="middle" x="154.837" y="58.8644" font-family="Times,serif" font-size="14.00"> 3</text>
</g>
<!-- 7 -->
<g id="node3" class="node"><title>7</title>
<ellipse fill="none" stroke="red" stroke-width="2" cx="-94.2879" cy="-152.575" rx="18" ry="18"/>
<text text-anchor="middle" x="-94.2879" y="-148.875" font-family="Times,serif" font-size="14.00">7</text>
</g>
<!-- 8 -->
<g id="node4" class="node"><title>8</title>
<ellipse fill="none" stroke="red" stroke-width="2" cx="-148.933" cy="-89.7508" rx="18" ry="18"/>
<text text-anchor="middle" x="-148.933" y="-86.0508" font-family="Times,serif" font-size="14.00">8</text>
</g>
<!-- 7&#45;&gt;8 -->
<g id="edge2" class="edge"><title>7&#45;&gt;8</title>
<path fill="none" stroke="red" stroke-width="2" d="M-101.391,-135.888C-107.808,-126.673 -117.306,-115.351 -126.181,-106.183"/>
<polygon fill="red" stroke="red" stroke-width="2" points="-123.821,-103.595 -133.407,-99.0826 -128.727,-108.588 -123.821,-103.595"/>
<text text-anchor="middle" x="-119.286" y="-124.836" font-family="Times,serif" font-size="14.00"> 7</text>
</g>
<!-- 6 -->
<g id="node5" class="node"><title>6</title>
<ellipse fill="none" stroke="red" stroke-width="2" cx="-13.3395" cy="-178.624" rx="18" ry="18"/>
<text text-anchor="middle" x="-13.3395" y="-174.924" font-family="Times,serif" font-size="14.00">6</text>
</g>
<!-- 7&#45;&gt;6 -->
<g id="edge30" class="edge"><title>7&#45;&gt;6</title>
<path fill="none" stroke="black" d="M-79.6065,-163.129C-68.9121,-167.899 -54.1233,-172.937 -41.2224,-176.32"/>
<polygon fill="black" stroke="black" points="-41.9318,-179.748 -31.3951,-178.64 -40.3231,-172.936 -41.9318,-179.748"/>
<text text-anchor="middle" x="-67.9144" y="-173.524" font-family="Times,serif" font-size="14.00"> 5 </text>
</g>
<!-- 7&#45;&gt;0 -->
<g id="edge56" class="edge"><title>7&#45;&gt;0</title>
<path fill="none" stroke="black" d="M-81.5607,-139.539C-63.0265,-114.439 -29.7421,-59.2309 -12.9121,-26.1698"/>
<polygon fill="black" stroke="black" points="-9.7126,-27.5948 -8.43913,-17.0768 -15.9938,-24.505 -9.7126,-27.5948"/>
<text text-anchor="middle" x="-54.7364" y="-86.6545" font-family="Times,serif" font-size="14.00"> 3 </text>
</g>
<!-- 8&#45;&gt;7 -->
<g id="edge17" class="edge"><title>8&#45;&gt;7</title>
<path fill="none" stroke="black" d="M-141.83,-106.439C-135.414,-115.654 -125.915,-126.975 -117.04,-136.143"/>
<polygon fill="black" stroke="black" points="-119.4,-138.731 -109.814,-143.244 -114.494,-133.738 -119.4,-138.731"/>
<text text-anchor="middle" x="-136.935" y="-125.091" font-family="Times,serif" font-size="14.00"> 7 </text>
</g>
<!-- 8&#45;&gt;0 -->
<g id="edge31" class="edge"><title>8&#45;&gt;0</title>
<path fill="none" stroke="black" d="M-131.607,-84.1246C-104.723,-71.004 -53.2366,-39.5761 -24.1997,-18.8627"/>
<polygon fill="black" stroke="black" points="-21.9481,-21.5516 -15.9611,-12.8105 -26.0923,-15.9102 -21.9481,-21.5516"/>
<text text-anchor="middle" x="-85.4034" y="-55.2937" font-family="Times,serif" font-size="14.00"> 4 </text>
</g>
<!-- 9 -->
<g id="node7" class="node"><title>9</title>
<ellipse fill="none" stroke="red" stroke-width="2" cx="-191.617" cy="-13.5711" rx="18" ry="18"/>
<text text-anchor="middle" x="-191.617" y="-9.87113" font-family="Times,serif" font-size="14.00">9</text>
</g>
<!-- 8&#45;&gt;9 -->
<g id="edge47" class="edge"><title>8&#45;&gt;9</title>
<path fill="none" stroke="red" stroke-width="2" d="M-152.565,-72.0099C-157.372,-60.7196 -165.254,-46.1021 -172.777,-34.2883"/>
<polygon fill="red" stroke="red" stroke-width="2" points="-169.926,-32.2566 -178.403,-25.9022 -175.739,-36.1564 -169.926,-32.2566"/>
<text text-anchor="middle" x="-168.171" y="-56.9491" font-family="Times,serif" font-size="14.00"> 1</text>
</g>
<!-- 6&#45;&gt;7 -->
<g id="edge46" class="edge"><title>6&#45;&gt;7</title>
<path fill="none" stroke="red" stroke-width="2" d="M-28.0209,-168.071C-38.7152,-163.301 -53.5041,-158.263 -66.405,-154.88"/>
<polygon fill="red" stroke="red" stroke-width="2" points="-65.6955,-151.452 -76.2323,-152.56 -67.3043,-158.264 -65.6955,-151.452"/>
<text text-anchor="middle" x="-52.713" y="-165.276" font-family="Times,serif" font-size="14.00"> 5</text>
</g>
<!-- 6&#45;&gt;0 -->
<g id="edge3" class="edge"><title>6&#45;&gt;0</title>
<path fill="none" stroke="black" d="M-8.12789,-161.39C-3.26023,-130.444 0.77918,-65.2056 0.411638,-27.7612"/>
<polygon fill="black" stroke="black" points="3.90558,-27.4593 0.170527,-17.5447 -3.09247,-27.6245 3.90558,-27.4593"/>
<text text-anchor="middle" x="-11.3581" y="-98.3757" font-family="Times,serif" font-size="14.00"> 3 </text>
</g>
<!-- 5 -->
<g id="node15" class="node"><title>5</title>
<ellipse fill="none" stroke="red" stroke-width="2" cx="77.4317" cy="-170.42" rx="18" ry="18"/>
<text text-anchor="middle" x="77.4317" y="-166.72" font-family="Times,serif" font-size="14.00">5</text>
</g>
<!-- 6&#45;&gt;5 -->
<g id="edge36" class="edge"><title>6&#45;&gt;5</title>
<path fill="none" stroke="black" d="M4.65344,-182.478C17.7962,-182.693 35.8335,-181.328 50.6636,-179.116"/>
<polygon fill="black" stroke="black" points="51.5224,-182.519 60.7795,-177.366 50.3292,-175.622 51.5224,-182.519"/>
<text text-anchor="middle" x="20.1585" y="-184.597" font-family="Times,serif" font-size="14.00"> 5 </text>
</g>
<!-- 0&#45;&gt;14 -->
<g id="edge18" class="edge"><title>0&#45;&gt;14</title>
<path fill="none" stroke="black" d="M10.8498,12.4566C25.4529,30.0495 47.7513,62.7687 61.4581,86.3117"/>
<polygon fill="black" stroke="black" points="64.5745,84.7132 66.4242,95.1453 58.4727,88.1436 64.5745,84.7132"/>
<text text-anchor="middle" x="43.6539" y="45.5842" font-family="Times,serif" font-size="14.00"> 3 </text>
</g>
<!-- 0&#45;&gt;1 -->
<g id="edge54" class="edge"><title>0&#45;&gt;1</title>
<path fill="none" stroke="black" d="M14.1143,6.41647C43.9966,21.8804 105.273,61.1092 137.612,85.1574"/>
<polygon fill="black" stroke="black" points="140.097,82.6516 145.916,91.5054 135.846,88.2128 140.097,82.6516"/>
<text text-anchor="middle" x="68.3634" y="41.987" font-family="Times,serif" font-size="14.00"> 8 </text>
</g>
<!-- 0&#45;&gt;7 -->
<g id="edge10" class="edge"><title>0&#45;&gt;7</title>
<path fill="none" stroke="black" d="M-15.7564,-12.7907C-34.2907,-37.891 -67.5751,-93.0991 -84.405,-126.16"/>
<polygon fill="black" stroke="black" points="-87.6045,-124.735 -88.878,-135.253 -81.3233,-127.825 -87.6045,-124.735"/>
<text text-anchor="middle" x="-57.5807" y="-58.2754" font-family="Times,serif" font-size="14.00"> 3 </text>
</g>
<!-- 0&#45;&gt;8 -->
<g id="edge22" class="edge"><title>0&#45;&gt;8</title>
<path fill="none" stroke="black" d="M-20.3553,-5.38075C-47.2398,-18.5014 -98.7259,-49.9293 -127.763,-70.6427"/>
<polygon fill="black" stroke="black" points="-130.014,-67.9538 -136.001,-76.6948 -125.87,-73.5952 -130.014,-67.9538"/>
<text text-anchor="middle" x="-81.559" y="-26.8117" font-family="Times,serif" font-size="14.00"> 4 </text>
</g>
<!-- 0&#45;&gt;6 -->
<g id="edge50" class="edge"><title>0&#45;&gt;6</title>
<path fill="none" stroke="black" d="M-8.24088,-16.9887C-13.1085,-47.935 -17.148,-113.173 -16.7804,-150.618"/>
<polygon fill="black" stroke="black" points="-20.2744,-150.92 -16.5393,-160.834 -13.2763,-150.754 -20.2744,-150.92"/>
<text text-anchor="middle" x="-20.0107" y="-72.6032" font-family="Times,serif" font-size="14.00"> 3 </text>
</g>
<!-- 0&#45;&gt;9 -->
<g id="edge4" class="edge"><title>0&#45;&gt;9</title>
<path fill="none" stroke="black" d="M-21.0741,3.08067C-54.3154,3.83952 -125.386,-1.10413 -164.471,-6.63534"/>
<polygon fill="black" stroke="black" points="-165.015,-3.17774 -174.361,-8.16759 -163.943,-10.0952 -165.015,-3.17774"/>
<text text-anchor="middle" x="-100.273" y="9.42267" font-family="Times,serif" font-size="14.00"> 3 </text>
</g>
<!-- 0&#45;&gt;2 -->
<g id="edge14" class="edge"><title>0&#45;&gt;2</title>
<path fill="none" stroke="black" d="M15.0304,-2.71767C46.3695,-3.52876 110.997,0.819592 147.915,5.96628"/>
<polygon fill="black" stroke="black" points="148.626,2.53418 157.98,7.50955 147.565,9.45331 148.626,2.53418"/>
<text text-anchor="middle" x="73.973" y="-2.1757" font-family="Times,serif" font-size="14.00"> 0 </text>
</g>
<!-- 12 -->
<g id="node9" class="node"><title>12</title>
<ellipse fill="none" stroke="red" stroke-width="2" cx="-52.3002" cy="163.42" rx="19.4965" ry="19.4965"/>
<text text-anchor="middle" x="-52.3002" y="167.12" font-family="Times,serif" font-size="14.00">12</text>
</g>
<!-- 0&#45;&gt;12 -->
<g id="edge6" class="edge"><title>0&#45;&gt;12</title>
<path fill="none" stroke="black" d="M-3.9931,18.3385C-9.63885,47.071 -26.266,103.234 -38.7191,136.636"/>
<polygon fill="black" stroke="black" points="-35.5549,138.157 -42.4331,146.216 -42.0816,135.627 -35.5549,138.157"/>
<text text-anchor="middle" x="-28.8561" y="73.6872" font-family="Times,serif" font-size="14.00"> 2 </text>
</g>
<!-- 0&#45;&gt;13 -->
<g id="edge44" class="edge"><title>0&#45;&gt;13</title>
<path fill="none" stroke="black" d="M4.5147,16.9099C14.2091,48.9758 28.7062,119.614 34.1591,159.912"/>
<polygon fill="black" stroke="black" points="37.6454,159.587 35.3944,169.939 30.6979,160.442 37.6454,159.587"/>
<text text-anchor="middle" x="11.8369" y="84.6111" font-family="Times,serif" font-size="14.00"> 3 </text>
</g>
<!-- 11 -->
<g id="node11" class="node"><title>11</title>
<ellipse fill="none" stroke="red" stroke-width="2" cx="-136.623" cy="134.028" rx="19.4965" ry="19.4965"/>
<text text-anchor="middle" x="-136.623" y="137.728" font-family="Times,serif" font-size="14.00">11</text>
</g>
<!-- 0&#45;&gt;11 -->
<g id="edge28" class="edge"><title>0&#45;&gt;11</title>
<path fill="none" stroke="black" d="M-12.6637,15.7611C-33.3719,40.9173 -81.9544,90.0133 -111.849,116.421"/>
<polygon fill="black" stroke="black" points="-109.887,119.351 -119.747,123.229 -114.458,114.049 -109.887,119.351"/>
<text text-anchor="middle" x="-69.7564" y="62.2912" font-family="Times,serif" font-size="14.00"> 0 </text>
</g>
<!-- 10 -->
<g id="node12" class="node"><title>10</title>
<ellipse fill="none" stroke="red" stroke-width="2" cx="-137.328" cy="49.8215" rx="19.4965" ry="19.4965"/>
<text text-anchor="middle" x="-137.328" y="53.5215" font-family="Times,serif" font-size="14.00">10</text>
</g>
<!-- 0&#45;&gt;10 -->
<g id="edge38" class="edge"><title>0&#45;&gt;10</title>
<path fill="none" stroke="black" d="M-17.899,10.6532C-39.5233,21.2789 -80.018,36.569 -107.822,44.8731"/>
<polygon fill="black" stroke="black" points="-107.217,48.3389 -117.792,47.6894 -109.12,41.6026 -107.217,48.3389"/>
<text text-anchor="middle" x="-70.3607" y="38.9632" font-family="Times,serif" font-size="14.00"> 9 </text>
</g>
<!-- 4 -->
<g id="node13" class="node"><title>4</title>
<ellipse fill="none" stroke="red" stroke-width="2" cx="85.3432" cy="-79.8157" rx="18" ry="18"/>
<text text-anchor="middle" x="85.3432" y="-76.1157" font-family="Times,serif" font-size="14.00">4</text>
</g>
<!-- 0&#45;&gt;4 -->
<g id="edge15" class="edge"><title>0&#45;&gt;4</title>
<path fill="none" stroke="red" stroke-width="2" d="M6.68336,-15.2403C19.6629,-29.7709 42.7544,-51.083 60.6292,-65.2895"/>
<polygon fill="red" stroke="red" stroke-width="2" points="58.8492,-68.3346 68.9179,-71.632 63.1031,-62.7754 58.8492,-68.3346"/>
<text text-anchor="middle" x="28.1563" y="-44.0649" font-family="Times,serif" font-size="14.00"> 9</text>
</g>
<!-- 3 -->
<g id="node14" class="node"><title>3</title>
<ellipse fill="none" stroke="red" stroke-width="2" cx="172.666" cy="-83.7197" rx="18" ry="18"/>
<text text-anchor="middle" x="172.666" y="-80.0197" font-family="Times,serif" font-size="14.00">3</text>
</g>
<!-- 0&#45;&gt;3 -->
<g id="edge25" class="edge"><title>0&#45;&gt;3</title>
<path fill="none" stroke="black" d="M11.113,-11.0354C40.3342,-28.6187 107.608,-61.0685 145.503,-76.1601"/>
<polygon fill="black" stroke="black" points="144.32,-79.4549 154.91,-79.7671 146.826,-72.9189 144.32,-79.4549"/>
<text text-anchor="middle" x="70.808" y="-47.3977" font-family="Times,serif" font-size="14.00"> 9 </text>
</g>
<!-- 0&#45;&gt;5 -->
<g id="edge52" class="edge"><title>0&#45;&gt;5</title>
<path fill="none" stroke="black" d="M0.790054,-17.5784C11.9393,-48.6626 41.7879,-112.619 60.9642,-147.147"/>
<polygon fill="black" stroke="black" points="58.0583,-149.116 66.0655,-156.054 64.1326,-145.637 58.0583,-149.116"/>
<text text-anchor="middle" x="23.3771" y="-86.1629" font-family="Times,serif" font-size="14.00"> 5 </text>
</g>
<!-- 9&#45;&gt;8 -->
<g id="edge35" class="edge"><title>9&#45;&gt;8</title>
<path fill="none" stroke="black" d="M-187.985,-31.312C-183.178,-42.6023 -175.296,-57.2198 -167.773,-69.0337"/>
<polygon fill="black" stroke="black" points="-170.624,-71.0654 -162.147,-77.4198 -164.811,-67.1655 -170.624,-71.0654"/>
<text text-anchor="middle" x="-185.379" y="-53.9729" font-family="Times,serif" font-size="14.00"> 1 </text>
</g>
<!-- 9&#45;&gt;0 -->
<g id="edge9" class="edge"><title>9&#45;&gt;0</title>
<path fill="none" stroke="black" d="M-173.572,-16.4064C-140.331,-17.1652 -69.2597,-12.2216 -30.1749,-6.69034"/>
<polygon fill="black" stroke="black" points="-29.6312,-10.1479 -20.285,-5.15809 -30.703,-3.23047 -29.6312,-10.1479"/>
<text text-anchor="middle" x="-109.374" y="-15.3483" font-family="Times,serif" font-size="14.00"> 3 </text>
</g>
<!-- 9&#45;&gt;10 -->
<g id="edge21" class="edge"><title>9&#45;&gt;10</title>
<path fill="none" stroke="red" stroke-width="2" d="M-176.12,-4.07401C-168.332,3.25857 -159.063,13.6286 -151.474,23.3462"/>
<polygon fill="red" stroke="red" stroke-width="2" points="-148.476,21.5122 -145.317,31.6251 -154.093,25.6896 -148.476,21.5122"/>
<text text-anchor="middle" x="-169.297" y="20.8361" font-family="Times,serif" font-size="14.00"> 7</text>
</g>
<!-- 2&#45;&gt;1 -->
<g id="edge5" class="edge"><title>2&#45;&gt;1</title>
<path fill="none" stroke="black" d="M177.526,31.1982C176.514,44.7607 173.358,63.4645 169.655,78.5947"/>
<polygon fill="black" stroke="black" points="172.998,79.6413 167.024,88.3914 166.238,77.8258 172.998,79.6413"/>
<text text-anchor="middle" x="181.09" y="51.0964" font-family="Times,serif" font-size="14.00"> 3 </text>
</g>
<!-- 2&#45;&gt;0 -->
<g id="edge12" class="edge"><title>2&#45;&gt;0</title>
<path fill="none" stroke="black" d="M157.303,15.9627C125.964,16.7738 61.3361,12.4255 24.418,7.27878"/>
<polygon fill="black" stroke="black" points="23.7078,10.7109 14.3539,5.73551 24.7689,3.79175 23.7078,10.7109"/>
<text text-anchor="middle" x="83.3605" y="22.8208" font-family="Times,serif" font-size="14.00"> 0 </text>
</g>
<!-- 2&#45;&gt;3 -->
<g id="edge24" class="edge"><title>2&#45;&gt;3</title>
<path fill="none" stroke="black" d="M169.567,-4.14371C167.604,-18.4524 166.742,-39.128 167.27,-55.818"/>
<polygon fill="black" stroke="black" points="163.791,-56.3043 167.82,-66.1031 170.781,-55.9305 163.791,-56.3043"/>
<text text-anchor="middle" x="160.919" y="-33.7808" font-family="Times,serif" font-size="14.00"> 0 </text>
</g>
<!-- 12&#45;&gt;0 -->
<g id="edge16" class="edge"><title>12&#45;&gt;0</title>
<path fill="none" stroke="black" d="M-51.0168,143.729C-45.0123,114.193 -28.4316,58.4606 -16.1571,25.8193"/>
<polygon fill="black" stroke="black" points="-19.2527,24.1262 -12.3421,16.0953 -12.7362,26.6828 -19.2527,24.1262"/>
<text text-anchor="middle" x="-41.087" y="95.9742" font-family="Times,serif" font-size="14.00"> 2 </text>
</g>
<!-- 12&#45;&gt;13 -->
<g id="edge37" class="edge"><title>12&#45;&gt;13</title>
<path fill="none" stroke="red" stroke-width="2" d="M-32.6013,163.488C-20.3059,165.89 -4.35189,170.413 8.97763,175.174"/>
<polygon fill="red" stroke="red" stroke-width="2" points="10.4604,171.993 18.5551,178.829 7.96444,178.533 10.4604,171.993"/>
<text text-anchor="middle" x="-20.8119" y="165.531" font-family="Times,serif" font-size="14.00"> 10</text>
</g>
<!-- 12&#45;&gt;11 -->
<g id="edge33" class="edge"><title>12&#45;&gt;11</title>
<path fill="none" stroke="black" d="M-72.038,162.509C-83.7155,159.681 -98.6124,154.749 -111.164,149.655"/>
<polygon fill="black" stroke="black" points="-112.827,152.749 -120.621,145.572 -110.052,146.323 -112.827,152.749"/>
<text text-anchor="middle" x="-99.1009" y="167.282" font-family="Times,serif" font-size="14.00"> 9 </text>
</g>
<!-- 13&#45;&gt;14 -->
<g id="edge8" class="edge"><title>13&#45;&gt;14</title>
<path fill="none" stroke="red" stroke-width="2" d="M38.3519,170.212C42.2786,160.02 48.3015,147.487 54.314,136.81"/>
<polygon fill="red" stroke="red" stroke-width="2" points="51.425,134.82 59.5421,128.011 57.4429,138.396 51.425,134.82"/>
<text text-anchor="middle" x="40.8329" y="149.711" font-family="Times,serif" font-size="14.00"> 6</text>
</g>
<!-- 13&#45;&gt;0 -->
<g id="edge11" class="edge"><title>13&#45;&gt;0</title>
<path fill="none" stroke="black" d="M27.0714,171.589C17.2625,138.525 2.85618,67.9546 -2.36532,28.4706"/>
<polygon fill="black" stroke="black" points="-5.85181,28.791 -3.55926,18.4472 1.09905,27.963 -5.85181,28.791"/>
<text text-anchor="middle" x="4.85303" y="111.23" font-family="Times,serif" font-size="14.00"> 3 </text>
</g>
<!-- 13&#45;&gt;12 -->
<g id="edge7" class="edge"><title>13&#45;&gt;12</title>
<path fill="none" stroke="black" d="M15.3202,189.534C3.02475,187.132 -12.9293,182.608 -26.2588,177.848"/>
<polygon fill="black" stroke="black" points="-27.7416,181.029 -35.8363,174.193 -25.2456,174.489 -27.7416,181.029"/>
<text text-anchor="middle" x="-16.4693" y="194.891" font-family="Times,serif" font-size="14.00"> 10 </text>
</g>
<!-- 11&#45;&gt;0 -->
<g id="edge26" class="edge"><title>11&#45;&gt;0</title>
<path fill="none" stroke="black" d="M-126.104,117.443C-104.501,91.4779 -55.3616,41.9561 -26.0552,16.3153"/>
<polygon fill="black" stroke="black" points="-28.2369,13.576 -18.3546,9.75599 -23.6977,18.9049 -28.2369,13.576"/>
<text text-anchor="middle" x="-83.5796" y="78.0793" font-family="Times,serif" font-size="14.00"> 0 </text>
</g>
<!-- 11&#45;&gt;12 -->
<g id="edge23" class="edge"><title>11&#45;&gt;12</title>
<path fill="none" stroke="red" stroke-width="2" d="M-116.886,134.94C-105.208,137.768 -90.3112,142.699 -77.7598,147.793"/>
<polygon fill="red" stroke="red" stroke-width="2" points="-76.0964,144.699 -68.3031,151.877 -78.8713,151.126 -76.0964,144.699"/>
<text text-anchor="middle" x="-102.823" y="137.566" font-family="Times,serif" font-size="14.00"> 9</text>
</g>
<!-- 11&#45;&gt;10 -->
<g id="edge13" class="edge"><title>11&#45;&gt;10</title>
<path fill="none" stroke="black" d="M-142.5,115.388C-143.645,104.679 -144.004,90.9945 -143.537,78.9006"/>
<polygon fill="black" stroke="black" points="-147.022,78.5619 -142.913,68.7967 -140.036,78.9934 -147.022,78.5619"/>
<text text-anchor="middle" x="-154.018" y="93.3443" font-family="Times,serif" font-size="14.00"> 10 </text>
</g>
<!-- 10&#45;&gt;0 -->
<g id="edge32" class="edge"><title>10&#45;&gt;0</title>
<path fill="none" stroke="black" d="M-121.142,38.7727C-98.8137,27.9828 -58.3018,12.7748 -31.017,4.74376"/>
<polygon fill="black" stroke="black" points="-31.8447,1.34125 -21.273,2.04137 -29.9739,8.08664 -31.8447,1.34125"/>
<text text-anchor="middle" x="-83.5797" y="17.9582" font-family="Times,serif" font-size="14.00"> 9 </text>
</g>
<!-- 10&#45;&gt;9 -->
<g id="edge48" class="edge"><title>10&#45;&gt;9</title>
<path fill="none" stroke="black" d="M-154.022,39.1839C-161.994,31.5136 -171.298,20.9643 -178.727,11.2824"/>
<polygon fill="black" stroke="black" points="-181.634,13.2356 -184.692,3.09152 -175.975,9.11477 -181.634,13.2356"/>
<text text-anchor="middle" x="-173.874" y="36.4332" font-family="Times,serif" font-size="14.00"> 7 </text>
</g>
<!-- 10&#45;&gt;11 -->
<g id="edge19" class="edge"><title>10&#45;&gt;11</title>
<path fill="none" stroke="red" stroke-width="2" d="M-131.452,68.4619C-130.306,79.171 -129.948,92.8553 -130.415,104.949"/>
<polygon fill="red" stroke="red" stroke-width="2" points="-126.929,105.288 -131.039,115.053 -133.915,104.856 -126.929,105.288"/>
<text text-anchor="middle" x="-121.933" y="82.9056" font-family="Times,serif" font-size="14.00"> 10</text>
</g>
<!-- 4&#45;&gt;0 -->
<g id="edge39" class="edge"><title>4&#45;&gt;0</title>
<path fill="none" stroke="black" d="M75.6306,-64.33C62.651,-49.7994 39.5595,-28.4873 21.6847,-14.2807"/>
<polygon fill="black" stroke="black" points="23.4647,-11.2357 13.3961,-7.93824 19.2108,-16.7949 23.4647,-11.2357"/>
<text text-anchor="middle" x="41.1576" y="-43.1054" font-family="Times,serif" font-size="14.00"> 9 </text>
</g>
<!-- 4&#45;&gt;3 -->
<g id="edge40" class="edge"><title>4&#45;&gt;3</title>
<path fill="none" stroke="black" d="M102.35,-86.0853C114.49,-87.9545 131.083,-88.965 145.102,-88.8025"/>
<polygon fill="black" stroke="black" points="145.334,-92.2965 155.204,-88.4444 145.086,-85.3009 145.334,-92.2965"/>
<text text-anchor="middle" x="116.226" y="-91.2439" font-family="Times,serif" font-size="14.00"> 3 </text>
</g>
<!-- 4&#45;&gt;5 -->
<g id="edge42" class="edge"><title>4&#45;&gt;5</title>
<path fill="none" stroke="red" stroke-width="2" d="M78.3805,-96.8103C75.8546,-109.682 74.0212,-127.639 73.5866,-142.595"/>
<polygon fill="red" stroke="red" stroke-width="2" points="70.0853,-142.82 73.5274,-152.84 77.0852,-142.86 70.0853,-142.82"/>
<text text-anchor="middle" x="70.4835" y="-123.503" font-family="Times,serif" font-size="14.00"> 3</text>
</g>
<!-- 3&#45;&gt;0 -->
<g id="edge41" class="edge"><title>3&#45;&gt;0</title>
<path fill="none" stroke="red" stroke-width="2" d="M158.524,-72.4388C129.303,-54.8556 62.0293,-22.4057 24.1339,-7.31417"/>
<polygon fill="red" stroke="red" stroke-width="2" points="25.3168,-4.01934 14.7266,-3.7072 22.8107,-10.5554 25.3168,-4.01934"/>
<text text-anchor="middle" x="85.8288" y="-43.6765" font-family="Times,serif" font-size="14.00"> 9</text>
</g>
<!-- 3&#45;&gt;2 -->
<g id="edge55" class="edge"><title>3&#45;&gt;2</title>
<path fill="none" stroke="black" d="M178.462,-66.5764C180.425,-52.2677 181.287,-31.5921 180.759,-14.9021"/>
<polygon fill="black" stroke="black" points="184.238,-14.4157 180.209,-4.61695 177.248,-14.7896 184.238,-14.4157"/>
<text text-anchor="middle" x="187.11" y="-44.5393" font-family="Times,serif" font-size="14.00"> 0 </text>
</g>
<!-- 3&#45;&gt;4 -->
<g id="edge27" class="edge"><title>3&#45;&gt;4</title>
<path fill="none" stroke="black" d="M155.66,-77.4502C143.52,-75.5809 126.926,-74.5704 112.907,-74.7329"/>
<polygon fill="black" stroke="black" points="112.675,-71.2389 102.805,-75.0911 112.923,-78.2345 112.675,-71.2389"/>
<text text-anchor="middle" x="126.784" y="-64.8915" font-family="Times,serif" font-size="14.00"> 3 </text>
</g>
<!-- 5&#45;&gt;6 -->
<g id="edge51" class="edge"><title>5&#45;&gt;6</title>
<path fill="none" stroke="red" stroke-width="2" d="M59.4388,-166.566C46.296,-166.351 28.2587,-167.716 13.4286,-169.928"/>
<polygon fill="red" stroke="red" stroke-width="2" points="12.5698,-166.525 3.31273,-171.678 13.763,-173.423 12.5698,-166.525"/>
<text text-anchor="middle" x="30.9337" y="-157.047" font-family="Times,serif" font-size="14.00"> 5</text>
</g>
<!-- 5&#45;&gt;0 -->
<g id="edge45" class="edge"><title>5&#45;&gt;0</title>
<path fill="none" stroke="black" d="M73.6124,-152.596C62.4631,-121.512 32.6146,-57.5555 13.4382,-23.0269"/>
<polygon fill="black" stroke="black" points="16.3441,-21.0582 8.33692,-14.1202 10.2699,-24.5372 16.3441,-21.0582"/>
<text text-anchor="middle" x="51.0253" y="-91.6114" font-family="Times,serif" font-size="14.00"> 5 </text>
</g>
<!-- 5&#45;&gt;4 -->
<g id="edge29" class="edge"><title>5&#45;&gt;4</title>
<path fill="none" stroke="black" d="M84.3944,-153.425C86.9203,-140.554 88.7537,-122.596 89.1883,-107.64"/>
<polygon fill="black" stroke="black" points="92.6896,-107.416 89.2475,-97.3956 85.6897,-107.375 92.6896,-107.416"/>
<text text-anchor="middle" x="94.2914" y="-134.333" font-family="Times,serif" font-size="14.00"> 3 </text>
</g>
</g>
</svg>
