<?xml version="1.0" encoding="UTF-8" standalone="no"?>
<!DOCTYPE svg PUBLIC "-//W3C//DTD SVG 1.1//EN"
 "http://www.w3.org/Graphics/SVG/1.1/DTD/svg11.dtd">
<!-- Generated by graphviz version 2.38.0 (20140413.2041)
 -->
<!-- Title: G Pages: 1 -->
<svg width="553pt" height="137pt"
 viewBox="0.00 0.00 553.00 137.00" xmlns="http://www.w3.org/2000/svg" xmlns:xlink="http://www.w3.org/1999/xlink">
<g id="graph0" class="graph" transform="scale(1 1) rotate(0) translate(4 133)">
<title>G</title>
<polygon fill="white" stroke="none" points="-4,4 -4,-133 549,-133 549,4 -4,4"/>
<!-- A -->
<g id="node1" class="node"><title>A</title>
<ellipse fill="none" stroke="red" stroke-width="2" cx="18" cy="-64" rx="18" ry="18"/>
<text text-anchor="middle" x="18" y="-60.3" font-family="Times,serif" font-size="14.00">A</text>
</g>
<!-- C -->
<g id="node2" class="node"><title>C</title>
<ellipse fill="none" stroke="red" stroke-width="2" cx="101" cy="-64" rx="18" ry="18"/>
<text text-anchor="middle" x="101" y="-60.3" font-family="Times,serif" font-size="14.00">C</text>
</g>
<!-- A&#45;&gt;C -->
<g id="edge1" class="edge"><title>A&#45;&gt;C</title>
<path fill="none" stroke="red" stroke-width="2" d="M36.178,-64C46.8097,-64 60.694,-64 72.7965,-64"/>
<polygon fill="red" stroke="red" stroke-width="2" points="72.8468,-67.5001 82.8467,-64 72.8467,-60.5001 72.8468,-67.5001"/>
<text text-anchor="middle" x="59.5" y="-67.8" font-family="Times,serif" font-size="14.00"> 3</text>
</g>
<!-- D -->
<g id="node3" class="node"><title>D</title>
<ellipse fill="none" stroke="red" stroke-width="2" cx="357" cy="-18" rx="18" ry="18"/>
<text text-anchor="middle" x="357" y="-14.3" font-family="Times,serif" font-size="14.00">D</text>
</g>
<!-- A&#45;&gt;D -->
<g id="edge2" class="edge"><title>A&#45;&gt;D</title>
<path fill="none" stroke="black" d="M29.9964,-50.1212C44.2489,-33.8279 70.7635,-9 100,-9 100,-9 100,-9 275,-9 293.049,-9 313.222,-11.2346 328.922,-13.4769"/>
<polygon fill="black" stroke="black" points="328.583,-16.9655 338.995,-15.0031 329.632,-10.0445 328.583,-16.9655"/>
<text text-anchor="middle" x="191" y="-12.8" font-family="Times,serif" font-size="14.00"> 4 </text>
</g>
<!-- B -->
<g id="node6" class="node"><title>B</title>
<ellipse fill="none" stroke="red" stroke-width="2" cx="191" cy="-111" rx="18" ry="18"/>
<text text-anchor="middle" x="191" y="-107.3" font-family="Times,serif" font-size="14.00">B</text>
</g>
<!-- A&#45;&gt;B -->
<g id="edge10" class="edge"><title>A&#45;&gt;B</title>
<path fill="none" stroke="black" d="M34.016,-72.9824C40.0903,-76.3944 47.251,-80.1429 54,-83 89.5981,-98.0698 98.905,-102.435 137,-109 145.202,-110.413 154.22,-111.078 162.454,-111.346"/>
<polygon fill="black" stroke="black" points="162.642,-114.85 172.694,-111.501 162.748,-107.85 162.642,-114.85"/>
<text text-anchor="middle" x="101" y="-108.8" font-family="Times,serif" font-size="14.00"> 3 </text>
</g>
<!-- C&#45;&gt;B -->
<g id="edge11" class="edge"><title>C&#45;&gt;B</title>
<path fill="none" stroke="red" stroke-width="2" d="M117.328,-72.1868C130.704,-79.3306 150.341,-89.8185 165.831,-98.0917"/>
<polygon fill="red" stroke="red" stroke-width="2" points="164.378,-101.283 174.847,-102.907 167.675,-95.1086 164.378,-101.283"/>
<text text-anchor="middle" x="146" y="-94.8" font-family="Times,serif" font-size="14.00"> 10</text>
</g>
<!-- F -->
<g id="node5" class="node"><title>F</title>
<ellipse fill="none" stroke="red" stroke-width="2" cx="444" cy="-69" rx="18" ry="18"/>
<text text-anchor="middle" x="444" y="-65.3" font-family="Times,serif" font-size="14.00">F</text>
</g>
<!-- D&#45;&gt;F -->
<g id="edge8" class="edge"><title>D&#45;&gt;F</title>
<path fill="none" stroke="red" stroke-width="2" d="M373.695,-24.9807C383.742,-29.6579 396.922,-36.1883 408,-43 412.365,-45.6836 416.868,-48.7658 421.132,-51.8481"/>
<polygon fill="red" stroke="red" stroke-width="2" points="419.32,-54.8639 429.425,-58.0476 423.511,-49.2571 419.32,-54.8639"/>
<text text-anchor="middle" x="400.5" y="-46.8" font-family="Times,serif" font-size="14.00"> 5</text>
</g>
<!-- E -->
<g id="node4" class="node"><title>E</title>
<ellipse fill="none" stroke="red" stroke-width="2" cx="274" cy="-72" rx="18" ry="18"/>
<text text-anchor="middle" x="274" y="-68.3" font-family="Times,serif" font-size="14.00">E</text>
</g>
<!-- E&#45;&gt;C -->
<g id="edge3" class="edge"><title>E&#45;&gt;C</title>
<path fill="none" stroke="black" d="M255.887,-71.1971C242.997,-70.5926 224.889,-69.7436 209,-69 181.826,-67.7282 150.769,-66.2772 129.14,-65.2671"/>
<polygon fill="black" stroke="black" points="129.202,-61.7663 119.049,-64.7959 128.875,-68.7587 129.202,-61.7663"/>
<text text-anchor="middle" x="191" y="-72.8" font-family="Times,serif" font-size="14.00"> 1 </text>
</g>
<!-- E&#45;&gt;D -->
<g id="edge4" class="edge"><title>E&#45;&gt;D</title>
<path fill="none" stroke="red" stroke-width="2" d="M287.824,-60.3533C294.249,-54.7874 302.288,-48.2182 310,-43 316.625,-38.5176 324.13,-34.1627 331.129,-30.3774"/>
<polygon fill="red" stroke="red" stroke-width="2" points="332.994,-33.3516 340.227,-25.6101 329.745,-27.1512 332.994,-33.3516"/>
<text text-anchor="middle" x="315.5" y="-46.8" font-family="Times,serif" font-size="14.00"> 1</text>
</g>
<!-- E&#45;&gt;F -->
<g id="edge5" class="edge"><title>E&#45;&gt;F</title>
<path fill="none" stroke="black" d="M292.033,-71.6958C321.088,-71.177 380.477,-70.1165 415.482,-69.4914"/>
<polygon fill="black" stroke="black" points="415.986,-72.983 425.922,-69.305 415.861,-65.9842 415.986,-72.983"/>
<text text-anchor="middle" x="357" y="-73.8" font-family="Times,serif" font-size="14.00"> 1 </text>
</g>
<!-- G -->
<g id="node7" class="node"><title>G</title>
<ellipse fill="none" stroke="red" stroke-width="2" cx="527" cy="-96" rx="18" ry="18"/>
<text text-anchor="middle" x="527" y="-92.3" font-family="Times,serif" font-size="14.00">G</text>
</g>
<!-- E&#45;&gt;G -->
<g id="edge9" class="edge"><title>E&#45;&gt;G</title>
<path fill="none" stroke="black" d="M290.798,-78.7028C296.729,-80.9963 303.588,-83.3876 310,-85 347.638,-94.4645 374.827,-96.5326 480,-101 484.884,-101.207 486.123,-101.347 491,-101 493.572,-100.817 496.241,-100.56 498.908,-100.257"/>
<polygon fill="black" stroke="black" points="499.507,-103.709 508.962,-98.9285 498.59,-96.769 499.507,-103.709"/>
<text text-anchor="middle" x="400.5" y="-100.8" font-family="Times,serif" font-size="14.00"> 2 </text>
</g>
<!-- F&#45;&gt;G -->
<g id="edge7" class="edge"><title>F&#45;&gt;G</title>
<path fill="none" stroke="red" stroke-width="2" d="M461.392,-74.4639C472.48,-78.1601 487.36,-83.1201 500.045,-87.3483"/>
<polygon fill="red" stroke="red" stroke-width="2" points="499.039,-90.7023 509.633,-90.5443 501.253,-84.0615 499.039,-90.7023"/>
<text text-anchor="middle" x="485.5" y="-87.8" font-family="Times,serif" font-size="14.00"> 5</text>
</g>
<!-- B&#45;&gt;E -->
<g id="edge6" class="edge"><title>B&#45;&gt;E</title>
<path fill="none" stroke="red" stroke-width="2" d="M207.618,-103.48C219.159,-97.9232 235.103,-90.2466 248.357,-83.8653"/>
<polygon fill="red" stroke="red" stroke-width="2" points="249.939,-86.9882 257.43,-79.4965 246.902,-80.6812 249.939,-86.9882"/>
<text text-anchor="middle" x="232.5" y="-96.8" font-family="Times,serif" font-size="14.00"> 2</text>
</g>
</g>
</svg>
