<?xml version="1.0" encoding="UTF-8" standalone="no"?>
<!DOCTYPE svg PUBLIC "-//W3C//DTD SVG 1.1//EN"
 "http://www.w3.org/Graphics/SVG/1.1/DTD/svg11.dtd">
<!-- Generated by graphviz version 2.38.0 (20140413.2041)
 -->
<!-- Title: G Pages: 1 -->
<svg width="475pt" height="204pt"
 viewBox="0.00 0.00 475.00 204.00" xmlns="http://www.w3.org/2000/svg" xmlns:xlink="http://www.w3.org/1999/xlink">
<g id="graph0" class="graph" transform="scale(1 1) rotate(0) translate(4 200)">
<title>G</title>
<polygon fill="white" stroke="none" points="-4,4 -4,-200 471,-200 471,4 -4,4"/>
<!-- A -->
<g id="node1" class="node"><title>A</title>
<ellipse fill="none" stroke="red" stroke-width="2" cx="18" cy="-49" rx="18" ry="18"/>
<text text-anchor="middle" x="18" y="-45.3" font-family="Times,serif" font-size="14.00">A</text>
</g>
<!-- B -->
<g id="node2" class="node"><title>B</title>
<ellipse fill="none" stroke="red" stroke-width="2" cx="105" cy="-49" rx="18" ry="18"/>
<text text-anchor="middle" x="105" y="-45.3" font-family="Times,serif" font-size="14.00">B</text>
</g>
<!-- A&#45;&gt;B -->
<g id="edge1" class="edge"><title>A&#45;&gt;B</title>
<path fill="none" stroke="black" d="M36.201,-49C47.8374,-49 63.4521,-49 76.7632,-49"/>
<polygon fill="black" stroke="black" points="76.8246,-52.5001 86.8246,-49 76.8245,-45.5001 76.8246,-52.5001"/>
<text text-anchor="middle" x="61.5" y="-52.8" font-family="Times,serif" font-size="14.00"> 3 </text>
</g>
<!-- C -->
<g id="node4" class="node"><title>C</title>
<ellipse fill="none" stroke="red" stroke-width="2" cx="279" cy="-18" rx="18" ry="18"/>
<text text-anchor="middle" x="279" y="-14.3" font-family="Times,serif" font-size="14.00">C</text>
</g>
<!-- A&#45;&gt;C -->
<g id="edge11" class="edge"><title>A&#45;&gt;C</title>
<path fill="none" stroke="black" d="M34.4465,-41.0174C47.9199,-34.5111 68.2001,-25.8002 87,-22 144.402,-10.3967 213.484,-12.8967 250.826,-15.5652"/>
<polygon fill="black" stroke="black" points="250.675,-19.0638 260.915,-16.3469 251.215,-12.0847 250.675,-19.0638"/>
<text text-anchor="middle" x="148.5" y="-18.8" font-family="Times,serif" font-size="14.00"> 3 </text>
</g>
<!-- D -->
<g id="node5" class="node"><title>D</title>
<ellipse fill="none" stroke="red" stroke-width="2" cx="279" cy="-178" rx="18" ry="18"/>
<text text-anchor="middle" x="279" y="-174.3" font-family="Times,serif" font-size="14.00">D</text>
</g>
<!-- A&#45;&gt;D -->
<g id="edge8" class="edge"><title>A&#45;&gt;D</title>
<path fill="none" stroke="red" stroke-width="2" d="M32.7471,-59.6435C64.8733,-83.9041 148.211,-143.337 228,-171 235.205,-173.498 243.288,-175.107 250.819,-176.142"/>
<polygon fill="red" stroke="red" stroke-width="2" points="250.628,-179.642 260.95,-177.256 251.393,-172.684 250.628,-179.642"/>
<text text-anchor="middle" x="148.5" y="-142.8" font-family="Times,serif" font-size="14.00"> 4</text>
</g>
<!-- E -->
<g id="node3" class="node"><title>E</title>
<ellipse fill="none" stroke="red" stroke-width="2" cx="192" cy="-81" rx="18" ry="18"/>
<text text-anchor="middle" x="192" y="-77.3" font-family="Times,serif" font-size="14.00">E</text>
</g>
<!-- B&#45;&gt;E -->
<g id="edge9" class="edge"><title>B&#45;&gt;E</title>
<path fill="none" stroke="red" stroke-width="2" d="M121.988,-55.019C134.139,-59.5935 151.104,-65.9805 165.173,-71.2769"/>
<polygon fill="red" stroke="red" stroke-width="2" points="164.203,-74.6514 174.795,-74.8992 166.669,-68.1003 164.203,-74.6514"/>
<text text-anchor="middle" x="148.5" y="-70.8" font-family="Times,serif" font-size="14.00"> 2</text>
</g>
<!-- E&#45;&gt;C -->
<g id="edge2" class="edge"><title>E&#45;&gt;C</title>
<path fill="none" stroke="red" stroke-width="2" d="M206.058,-69.6816C212.539,-64.1933 220.557,-57.5948 228,-52 236.595,-45.54 246.315,-38.8068 254.886,-33.053"/>
<polygon fill="red" stroke="red" stroke-width="2" points="256.909,-35.9108 263.305,-27.464 253.038,-30.0788 256.909,-35.9108"/>
<text text-anchor="middle" x="235.5" y="-55.8" font-family="Times,serif" font-size="14.00"> 1</text>
</g>
<!-- E&#45;&gt;D -->
<g id="edge6" class="edge"><title>E&#45;&gt;D</title>
<path fill="none" stroke="black" d="M200.88,-96.9865C207.241,-108.997 216.932,-125.465 228,-138 235.918,-146.967 246.014,-155.463 255.058,-162.3"/>
<polygon fill="black" stroke="black" points="253.158,-165.246 263.301,-168.307 257.281,-159.589 253.158,-165.246"/>
<text text-anchor="middle" x="235.5" y="-155.8" font-family="Times,serif" font-size="14.00"> 1 </text>
</g>
<!-- F -->
<g id="node6" class="node"><title>F</title>
<ellipse fill="none" stroke="red" stroke-width="2" cx="366" cy="-127" rx="18" ry="18"/>
<text text-anchor="middle" x="366" y="-123.3" font-family="Times,serif" font-size="14.00">F</text>
</g>
<!-- E&#45;&gt;F -->
<g id="edge4" class="edge"><title>E&#45;&gt;F</title>
<path fill="none" stroke="black" d="M208.846,-87.9274C214.783,-90.3658 221.633,-92.9955 228,-95 265.433,-106.784 309.844,-116.381 337.729,-121.895"/>
<polygon fill="black" stroke="black" points="337.421,-125.401 347.905,-123.87 338.755,-118.529 337.421,-125.401"/>
<text text-anchor="middle" x="279" y="-117.8" font-family="Times,serif" font-size="14.00"> 1 </text>
</g>
<!-- G -->
<g id="node7" class="node"><title>G</title>
<ellipse fill="none" stroke="red" stroke-width="2" cx="449" cy="-100" rx="18" ry="18"/>
<text text-anchor="middle" x="449" y="-96.3" font-family="Times,serif" font-size="14.00">G</text>
</g>
<!-- E&#45;&gt;G -->
<g id="edge5" class="edge"><title>E&#45;&gt;G</title>
<path fill="none" stroke="black" d="M210.127,-82.2761C253.496,-85.5076 367.94,-94.0348 420.678,-97.9642"/>
<polygon fill="black" stroke="black" points="420.715,-101.477 430.947,-98.7294 421.235,-94.496 420.715,-101.477"/>
<text text-anchor="middle" x="322.5" y="-95.8" font-family="Times,serif" font-size="14.00"> 2 </text>
</g>
<!-- C&#45;&gt;B -->
<g id="edge10" class="edge"><title>C&#45;&gt;B</title>
<path fill="none" stroke="red" stroke-width="2" d="M261.127,-21.0411C231.277,-26.421 168.934,-37.6572 133.033,-44.1278"/>
<polygon fill="red" stroke="red" stroke-width="2" points="132.026,-40.7528 122.805,-45.9711 133.268,-47.6418 132.026,-40.7528"/>
<text text-anchor="middle" x="192" y="-40.8" font-family="Times,serif" font-size="14.00"> 10</text>
</g>
<!-- D&#45;&gt;F -->
<g id="edge3" class="edge"><title>D&#45;&gt;F</title>
<path fill="none" stroke="red" stroke-width="2" d="M294.806,-169.116C307.647,-161.412 326.462,-150.123 341.381,-141.171"/>
<polygon fill="red" stroke="red" stroke-width="2" points="343.304,-144.099 350.079,-135.953 339.703,-138.097 343.304,-144.099"/>
<text text-anchor="middle" x="322.5" y="-159.8" font-family="Times,serif" font-size="14.00"> 5</text>
</g>
<!-- F&#45;&gt;G -->
<g id="edge7" class="edge"><title>F&#45;&gt;G</title>
<path fill="none" stroke="red" stroke-width="2" d="M383.392,-121.536C394.48,-117.84 409.36,-112.88 422.045,-108.652"/>
<polygon fill="red" stroke="red" stroke-width="2" points="423.253,-111.938 431.633,-105.456 421.039,-105.298 423.253,-111.938"/>
<text text-anchor="middle" x="407.5" y="-119.8" font-family="Times,serif" font-size="14.00"> 5</text>
</g>
</g>
</svg>
