<?xml version="1.0" encoding="UTF-8" standalone="no"?>
<!DOCTYPE svg PUBLIC "-//W3C//DTD SVG 1.1//EN"
 "http://www.w3.org/Graphics/SVG/1.1/DTD/svg11.dtd">
<!-- Generated by graphviz version 2.38.0 (20140413.2041)
 -->
<!-- Title: G Pages: 1 -->
<svg width="553pt" height="146pt"
 viewBox="0.00 0.00 553.00 146.00" xmlns="http://www.w3.org/2000/svg" xmlns:xlink="http://www.w3.org/1999/xlink">
<g id="graph0" class="graph" transform="scale(1 1) rotate(0) translate(4 142)">
<title>G</title>
<polygon fill="white" stroke="none" points="-4,4 -4,-142 549,-142 549,4 -4,4"/>
<!-- E -->
<g id="node1" class="node"><title>E</title>
<ellipse fill="none" stroke="red" stroke-width="2" cx="274" cy="-60" rx="18" ry="18"/>
<text text-anchor="middle" x="274" y="-56.3" font-family="Times,serif" font-size="14.00">E</text>
</g>
<!-- G -->
<g id="node2" class="node"><title>G</title>
<ellipse fill="none" stroke="red" stroke-width="2" cx="527" cy="-33" rx="18" ry="18"/>
<text text-anchor="middle" x="527" y="-29.3" font-family="Times,serif" font-size="14.00">G</text>
</g>
<!-- E&#45;&gt;G -->
<g id="edge1" class="edge"><title>E&#45;&gt;G</title>
<path fill="none" stroke="black" d="M291.629,-56.0294C319.305,-49.6465 376.66,-37.3765 426,-33 450.627,-30.8156 478.799,-31.0615 498.952,-31.7097"/>
<polygon fill="black" stroke="black" points="498.849,-35.2082 508.973,-32.0865 499.112,-28.2132 498.849,-35.2082"/>
<text text-anchor="middle" x="400.5" y="-39.8" font-family="Times,serif" font-size="14.00"> 2 </text>
</g>
<!-- D -->
<g id="node3" class="node"><title>D</title>
<ellipse fill="none" stroke="red" stroke-width="2" cx="357" cy="-111" rx="18" ry="18"/>
<text text-anchor="middle" x="357" y="-107.3" font-family="Times,serif" font-size="14.00">D</text>
</g>
<!-- E&#45;&gt;D -->
<g id="edge10" class="edge"><title>E&#45;&gt;D</title>
<path fill="none" stroke="red" stroke-width="2" d="M289.857,-69.3542C301.846,-76.9027 318.927,-87.6579 332.728,-96.3476"/>
<polygon fill="red" stroke="red" stroke-width="2" points="330.91,-99.3388 341.238,-101.705 334.64,-93.4151 330.91,-99.3388"/>
<text text-anchor="middle" x="315.5" y="-91.8" font-family="Times,serif" font-size="14.00"> 1</text>
</g>
<!-- F -->
<g id="node4" class="node"><title>F</title>
<ellipse fill="none" stroke="red" stroke-width="2" cx="444" cy="-60" rx="18" ry="18"/>
<text text-anchor="middle" x="444" y="-56.3" font-family="Times,serif" font-size="14.00">F</text>
</g>
<!-- E&#45;&gt;F -->
<g id="edge3" class="edge"><title>E&#45;&gt;F</title>
<path fill="none" stroke="black" d="M292.033,-60C321.088,-60 380.477,-60 415.482,-60"/>
<polygon fill="black" stroke="black" points="415.922,-63.5001 425.922,-60 415.922,-56.5001 415.922,-63.5001"/>
<text text-anchor="middle" x="357" y="-63.8" font-family="Times,serif" font-size="14.00"> 1 </text>
</g>
<!-- D&#45;&gt;F -->
<g id="edge2" class="edge"><title>D&#45;&gt;F</title>
<path fill="none" stroke="red" stroke-width="2" d="M372.806,-102.116C385.647,-94.4119 404.462,-83.1228 419.381,-74.1713"/>
<polygon fill="red" stroke="red" stroke-width="2" points="421.304,-77.0991 428.079,-68.9528 417.703,-71.0966 421.304,-77.0991"/>
<text text-anchor="middle" x="400.5" y="-91.8" font-family="Times,serif" font-size="14.00"> 5</text>
</g>
<!-- F&#45;&gt;G -->
<g id="edge7" class="edge"><title>F&#45;&gt;G</title>
<path fill="none" stroke="red" stroke-width="2" d="M461.392,-54.5361C472.48,-50.8399 487.36,-45.8799 500.045,-41.6517"/>
<polygon fill="red" stroke="red" stroke-width="2" points="501.253,-44.9385 509.633,-38.4557 499.039,-38.2977 501.253,-44.9385"/>
<text text-anchor="middle" x="485.5" y="-51.8" font-family="Times,serif" font-size="14.00"> 5</text>
</g>
<!-- B -->
<g id="node5" class="node"><title>B</title>
<ellipse fill="none" stroke="red" stroke-width="2" cx="191" cy="-18" rx="18" ry="18"/>
<text text-anchor="middle" x="191" y="-14.3" font-family="Times,serif" font-size="14.00">B</text>
</g>
<!-- B&#45;&gt;E -->
<g id="edge4" class="edge"><title>B&#45;&gt;E</title>
<path fill="none" stroke="red" stroke-width="2" d="M207.235,-25.8999C218.815,-31.904 234.982,-40.2869 248.388,-47.2384"/>
<polygon fill="red" stroke="red" stroke-width="2" points="247.069,-50.4967 257.557,-51.9927 250.291,-44.2824 247.069,-50.4967"/>
<text text-anchor="middle" x="232.5" y="-44.8" font-family="Times,serif" font-size="14.00"> 2</text>
</g>
<!-- A -->
<g id="node6" class="node"><title>A</title>
<ellipse fill="none" stroke="red" stroke-width="2" cx="18" cy="-66" rx="18" ry="18"/>
<text text-anchor="middle" x="18" y="-62.3" font-family="Times,serif" font-size="14.00">A</text>
</g>
<!-- A&#45;&gt;D -->
<g id="edge5" class="edge"><title>A&#45;&gt;D</title>
<path fill="none" stroke="black" d="M29.6413,-80.0899C43.7192,-96.9692 70.252,-123 100,-123 100,-123 100,-123 275,-123 293.25,-123 313.565,-119.982 329.285,-116.974"/>
<polygon fill="black" stroke="black" points="330.249,-120.349 339.352,-114.929 328.856,-113.489 330.249,-120.349"/>
<text text-anchor="middle" x="191" y="-126.8" font-family="Times,serif" font-size="14.00"> 4 </text>
</g>
<!-- A&#45;&gt;B -->
<g id="edge6" class="edge"><title>A&#45;&gt;B</title>
<path fill="none" stroke="black" d="M32.1266,-54.3617C44.3502,-44.3042 63.562,-30.4068 83,-24 109.119,-15.3911 140.748,-14.7234 162.817,-15.6965"/>
<polygon fill="black" stroke="black" points="162.63,-19.1914 172.816,-16.2784 163.037,-12.2033 162.63,-19.1914"/>
<text text-anchor="middle" x="101" y="-27.8" font-family="Times,serif" font-size="14.00"> 3 </text>
</g>
<!-- C -->
<g id="node7" class="node"><title>C</title>
<ellipse fill="none" stroke="red" stroke-width="2" cx="101" cy="-66" rx="18" ry="18"/>
<text text-anchor="middle" x="101" y="-62.3" font-family="Times,serif" font-size="14.00">C</text>
</g>
<!-- A&#45;&gt;C -->
<g id="edge9" class="edge"><title>A&#45;&gt;C</title>
<path fill="none" stroke="red" stroke-width="2" d="M36.178,-66C46.8097,-66 60.694,-66 72.7965,-66"/>
<polygon fill="red" stroke="red" stroke-width="2" points="72.8468,-69.5001 82.8467,-66 72.8467,-62.5001 72.8468,-69.5001"/>
<text text-anchor="middle" x="59.5" y="-69.8" font-family="Times,serif" font-size="14.00"> 3</text>
</g>
<!-- C&#45;&gt;E -->
<g id="edge11" class="edge"><title>C&#45;&gt;E</title>
<path fill="none" stroke="black" d="M119.021,-65.4028C148.649,-64.3632 209.937,-62.2127 245.609,-60.9611"/>
<polygon fill="black" stroke="black" points="245.923,-64.4523 255.794,-60.6037 245.677,-57.4566 245.923,-64.4523"/>
<text text-anchor="middle" x="191" y="-66.8" font-family="Times,serif" font-size="14.00"> 1 </text>
</g>
<!-- C&#45;&gt;B -->
<g id="edge8" class="edge"><title>C&#45;&gt;B</title>
<path fill="none" stroke="red" stroke-width="2" d="M116.36,-55.9073C122.581,-51.7085 130.024,-46.9119 137,-43 145.863,-38.0302 155.877,-33.133 164.795,-29.0083"/>
<polygon fill="red" stroke="red" stroke-width="2" points="166.271,-32.1824 173.936,-24.8687 163.383,-25.8058 166.271,-32.1824"/>
<text text-anchor="middle" x="146" y="-46.8" font-family="Times,serif" font-size="14.00"> 10</text>
</g>
</g>
</svg>
